<?xml version="1.0" standalone="no"?>
<!DOCTYPE svg PUBLIC "-//W3C//DTD SVG 1.0//EN" "http://www.w3.org/TR/2001/REC-SVG-20010904/DTD/svg10.dtd">
<svg xmlns="http://www.w3.org/2000/svg" xmlns:xlink="http://www.w3.org/1999/xlink" id="body_1" width="24" height="24">

<g transform="matrix(0.03513909 0 0 0.03513909 0 0)">
	<g transform="matrix(0.13339843 0 -0 -0.13339844 0 683)">
	</g>
    <path transform="matrix(0.13339843 0 -0 -0.13339844 0 683)"  d="M4417 5043C 4407 5027 4383 4384 4389 4301C 4391 4268 4402 4303 4406 4357C 4413 4459 4430 5043 4426 5047C 4424 5050 4420 5048 4417 5043z" stroke="none" fill="#000000" fill-rule="nonzero" />
	<g transform="matrix(0.13339843 0 -0 -0.13339844 0 683)">
	</g>
    <path transform="matrix(0.13339843 0 -0 -0.13339844 0 683)"  d="M2470 5023C 2430 5018 2407 5003 2417 4987C 2421 4981 2415 4979 2400 4983C 2384 4987 2372 4983 2363 4972C 2352 4960 2347 4958 2344 4968C 2341 4974 2333 4980 2327 4980C 2321 4980 2308 4987 2298 4997C 2276 5017 2262 5007 2280 4985C 2299 4962 2273 4940 2219 4933C 2155 4926 2142 4921 2159 4910C 2170 4904 2165 4897 2139 4881C 2102 4858 2085 4854 2095 4870C 2098 4876 2096 4880 2091 4880C 2085 4880 2080 4872 2080 4863C 2080 4849 2078 4848 2071 4859C 2062 4872 2040 4866 2040 4851C 2040 4846 2021 4814 1998 4780C 1926 4676 1927 4681 1926 4505C 1925 4330 1941 4177 1963 4155C 1971 4148 1987 4109 2000 4068C 2013 4028 2033 3975 2045 3950C 2081 3876 2094 3796 2079 3743C 2073 3718 2061 3696 2053 3693C 2040 3688 1993 3699 1930 3721C 1896 3734 1728 3714 1681 3693C 1661 3684 1629 3659 1609 3638C 1589 3617 1568 3600 1563 3600C 1557 3600 1550 3591 1547 3580C 1544 3569 1535 3560 1527 3560C 1519 3560 1510 3547 1507 3530C 1502 3509 1495 3500 1481 3500C 1466 3500 1459 3491 1454 3466C 1450 3442 1444 3433 1434 3437C 1425 3440 1420 3436 1420 3425C 1420 3416 1406 3397 1389 3383C 1362 3360 1359 3352 1361 3313C 1363 3289 1359 3266 1354 3262C 1348 3258 1341 3243 1338 3228C 1327 3171 1398 3198 1541 3307C 1604 3355 1698 3410 1824 3474C 1928 3527 2015 3570 2017 3570C 2019 3570 2020 3564 2020 3557C 2020 3538 2072 3460 2081 3466C 2099 3477 2140 3456 2162 3424C 2185 3390 2240 3353 2240 3371C 2240 3381 2270 3383 2294 3374C 2303 3371 2310 3362 2310 3355C 2310 3348 2315 3340 2320 3338C 2326 3336 2332 3326 2334 3314C 2342 3275 2369 3220 2382 3219C 2389 3218 2404 3219 2416 3219C 2445 3222 2507 3184 2513 3160C 2518 3139 2554 3133 2579 3149C 2589 3156 2607 3150 2636 3129C 2659 3113 2681 3100 2684 3100C 2698 3100 2688 3144 2665 3191C 2641 3238 2640 3245 2650 3302C 2662 3368 2709 3482 2730 3495C 2737 3499 2756 3506 2774 3511C 2823 3523 2921 3566 2938 3583C 2948 3594 2955 3622 2956 3664C 2958 3705 2967 3745 2979 3769C 2990 3790 3004 3839 3010 3876C 3016 3914 3028 3953 3037 3963C 3062 3989 3039 4005 2975 4005C 2933 4005 2917 4010 2901 4027C 2887 4042 2884 4050 2893 4053C 2900 4057 2899 4059 2889 4059C 2880 4060 2867 4052 2858 4043C 2839 4019 2818 3969 2825 3962C 2828 3959 2830 3962 2830 3968C 2830 3988 2854 3981 2872 3956C 2889 3932 2889 3932 2858 3921C 2841 3915 2820 3910 2812 3910C 2803 3910 2779 3902 2759 3893C 2729 3879 2722 3871 2726 3855C 2729 3842 2725 3845 2715 3863C 2699 3891 2685 3896 2661 3881C 2650 3874 2643 3878 2633 3893C 2607 3940 2599 3964 2605 3991C 2608 4006 2606 4021 2601 4025C 2585 4034 2588 4050 2605 4050C 2613 4050 2620 4046 2620 4041C 2620 4036 2631 4030 2645 4028C 2670 4023 2679 4033 2660 4045C 2653 4049 2653 4058 2660 4071C 2669 4086 2667 4092 2655 4096C 2647 4099 2640 4108 2640 4115C 2640 4121 2632 4134 2623 4143C 2606 4158 2601 4160 2582 4160C 2578 4160 2569 4174 2561 4192C 2550 4216 2550 4225 2558 4228C 2565 4230 2570 4236 2570 4241C 2570 4247 2567 4249 2563 4247C 2558 4244 2543 4266 2527 4296L2527 4296L2500 4350L2526 4356C 2540 4360 2563 4357 2576 4351C 2590 4345 2606 4342 2611 4345C 2626 4355 2621 4380 2605 4380C 2597 4380 2585 4389 2578 4400C 2571 4411 2557 4420 2548 4420C 2525 4420 2525 4437 2548 4443C 2558 4446 2554 4448 2538 4449C 2503 4450 2501 4470 2535 4470C 2549 4470 2562 4476 2564 4483C 2566 4489 2573 4518 2579 4545C 2613 4693 2655 4740 2754 4740C 2799 4740 2814 4735 2854 4705C 2879 4685 2900 4665 2900 4660C 2900 4654 2905 4650 2911 4650C 2917 4650 2920 4659 2917 4670C 2913 4687 2915 4688 2930 4680C 2973 4657 3040 4580 3041 4553C 3041 4537 3044 4531 3047 4538C 3049 4544 3058 4550 3065 4550C 3073 4550 3083 4557 3088 4566C 3096 4580 3098 4578 3104 4555C 3110 4530 3112 4529 3129 4544C 3144 4557 3145 4569 3139 4631C 3129 4721 3105 4761 2996 4869L2996 4869L2910 4954L2850 4958C 2812 4961 2793 4966 2797 4973C 2801 4979 2795 4981 2781 4977C 2769 4974 2716 4983 2662 4997C 2554 5025 2521 5030 2470 5023z" stroke="none" fill="#000000" fill-rule="nonzero" />
	<g transform="matrix(0.13339843 0 -0 -0.13339844 0 683)">
	</g>
    <path transform="matrix(0.13339843 0 -0 -0.13339844 0 683)"  d="M2750 4418C 2717 4409 2701 4395 2700 4377C 2700 4373 2706 4370 2713 4371C 2719 4372 2732 4371 2740 4367C 2748 4364 2762 4360 2770 4357C 2779 4354 2765 4344 2735 4331C 2668 4301 2657 4291 2671 4274C 2683 4259 2724 4264 2748 4283C 2757 4290 2767 4286 2784 4269C 2797 4256 2815 4240 2823 4233C 2831 4226 2840 4215 2843 4208C 2846 4199 2854 4203 2868 4221C 2879 4235 2909 4259 2934 4275C 2991 4311 2994 4338 2948 4373C 2918 4394 2817 4431 2794 4429C 2789 4429 2769 4424 2750 4418z" stroke="none" fill="#000000" fill-rule="nonzero" />
	<g transform="matrix(0.13339843 0 -0 -0.13339844 0 683)">
	</g>
    <path transform="matrix(0.13339843 0 -0 -0.13339844 0 683)"  d="M2035 3125C 2019 3117 1994 3111 1981 3110C 1968 3110 1947 3099 1934 3085C 1912 3061 1912 3060 1931 3060C 1947 3060 1950 3055 1945 3041C 1942 3030 1944 3013 1951 3002C 1960 2988 1960 2978 1952 2964C 1941 2946 1941 2946 1940 2966C 1940 2978 1934 2993 1926 2999C 1915 3009 1910 3007 1906 2992C 1902 2981 1901 2967 1903 2959C 1905 2951 1905 2948 1903 2951C 1901 2955 1891 2956 1881 2953C 1848 2945 1851 2889 1887 2792C 1915 2720 1919 2697 1914 2655C 1907 2597 1878 2494 1856 2452C 1848 2436 1844 2413 1847 2402C 1850 2390 1848 2380 1842 2380C 1836 2380 1832 2365 1833 2346C 1834 2327 1838 2314 1842 2316C 1845 2318 1846 2293 1843 2260L1843 2260L1837 2200L1874 2200C 1894 2200 1910 2195 1910 2189C 1910 2183 1894 2180 1871 2181C 1823 2185 1794 2165 1785 2123C 1779 2095 1782 2089 1808 2076C 1833 2063 1850 2042 1850 2023C 1850 2018 1815 2025 1787 2036C 1777 2039 1769 2031 1762 2010C 1751 1980 1755 1950 1770 1950C 1774 1950 1780 1941 1783 1929C 1788 1912 1785 1909 1769 1913C 1759 1916 1750 1914 1750 1909C 1750 1904 1743 1900 1735 1900C 1714 1900 1716 1872 1738 1867C 1751 1863 1749 1862 1733 1861C 1695 1859 1703 1816 1745 1790C 1764 1778 1780 1764 1780 1759C 1780 1754 1787 1750 1795 1750C 1803 1750 1810 1744 1810 1738C 1810 1729 1813 1730 1819 1739C 1825 1748 1847 1755 1874 1755C 1899 1756 1923 1759 1926 1763C 1931 1767 1862 1810 1840 1815C 1807 1824 1760 1856 1760 1870C 1760 1873 1778 1886 1800 1899C 1822 1911 1840 1917 1840 1911C 1840 1906 1852 1900 1868 1898C 1883 1896 1894 1891 1892 1885C 1886 1869 1924 1861 1931 1878C 1935 1888 1946 1879 1968 1845C 1986 1818 2000 1790 2000 1781C 2000 1760 2040 1680 2051 1680C 2067 1680 2061 1731 2041 1758C 2010 1802 1969 1891 1973 1903C 1975 1910 1993 1889 2013 1858C 2058 1788 2068 1782 2075 1817C 2079 1832 2085 1854 2090 1865C 2098 1883 2099 1882 2099 1859C 2100 1838 2111 1825 2148 1801C 2201 1767 2225 1761 2216 1785C 2209 1804 2212 1804 2255 1786C 2284 1773 2290 1773 2290 1785C 2290 1802 2332 1799 2355 1780C 2363 1773 2373 1770 2376 1773C 2385 1782 2350 1829 2318 1852L2318 1852L2288 1873L2295 1851C 2299 1836 2297 1830 2286 1830C 2278 1830 2270 1824 2268 1816C 2266 1808 2258 1805 2247 1809C 2231 1815 2233 1820 2264 1852C 2299 1888 2299 1888 2317 1868C 2334 1848 2404 1800 2415 1800C 2418 1800 2420 1816 2420 1835C 2420 1854 2423 1870 2426 1870C 2443 1870 2559 1806 2555 1800C 2552 1795 2559 1794 2570 1797C 2596 1804 2596 1788 2570 1765C 2559 1755 2550 1752 2550 1758C 2550 1765 2545 1770 2539 1770C 2531 1770 2531 1766 2538 1757C 2544 1750 2547 1734 2543 1722C 2540 1707 2543 1698 2554 1694C 2567 1689 2570 1671 2571 1601C 2572 1554 2575 1527 2577 1543C 2579 1558 2585 1568 2590 1565C 2594 1562 2610 1576 2624 1594C 2645 1623 2650 1639 2650 1689C 2650 1723 2654 1750 2658 1750C 2671 1750 2700 1715 2700 1700C 2700 1693 2708 1682 2717 1675C 2732 1664 2732 1657 2723 1626C 2712 1592 2722 1574 2734 1605C 2737 1613 2744 1620 2750 1620C 2763 1620 2752 1577 2738 1572C 2711 1561 2700 1535 2700 1479C 2700 1352 2766 1312 2772 1435L2772 1435L2775 1495L2820 1506C 2879 1521 2890 1511 2890 1443C 2890 1397 2893 1389 2906 1394C 2915 1397 2926 1400 2932 1400C 2943 1400 2936 1577 2921 1720L2921 1720L2914 1785L2896 1727C 2886 1695 2881 1666 2884 1663C 2887 1660 2880 1650 2870 1641C 2859 1632 2843 1612 2834 1595L2834 1595L2818 1565L2825 1604L2831 1642L2799 1638C 2774 1634 2766 1637 2763 1651C 2760 1662 2754 1667 2749 1664C 2734 1655 2739 1692 2754 1704C 2764 1712 2767 1730 2763 1773C 2758 1821 2754 1830 2738 1830C 2728 1830 2717 1838 2713 1848C 2703 1876 2628 1939 2585 1956C 2562 1964 2540 1981 2535 1993C 2524 2017 2480 2030 2480 2008C 2480 1998 2477 1999 2470 2010C 2462 2022 2460 2021 2460 2003C 2460 1990 2454 1980 2447 1980C 2437 1980 2436 1995 2441 2048C 2454 2162 2455 2160 2415 2160C 2378 2160 2366 2174 2358 2231C 2356 2250 2360 2256 2380 2258C 2394 2259 2434 2267 2470 2275C 2506 2283 2545 2291 2557 2293C 2568 2295 2584 2300 2592 2306C 2619 2326 2689 2352 2699 2346C 2705 2342 2710 2332 2710 2323C 2710 2314 2716 2310 2724 2313C 2734 2317 2742 2308 2750 2285C 2765 2238 2760 2204 2738 2208C 2711 2212 2715 2174 2745 2142C 2759 2127 2770 2107 2770 2097C 2770 2087 2775 2082 2780 2085C 2786 2088 2790 2098 2790 2106C 2790 2115 2804 2133 2820 2147C 2837 2161 2850 2182 2850 2194C 2850 2224 2840 2233 2822 2218C 2811 2208 2805 2210 2794 2225C 2778 2247 2775 2320 2790 2320C 2796 2320 2800 2327 2800 2335C 2800 2349 2804 2349 2838 2335C 2894 2312 2900 2298 2900 2193C 2900 2117 2903 2100 2915 2100C 2925 2100 2930 2110 2930 2130C 2930 2154 2934 2160 2953 2160C 2965 2160 2985 2163 2996 2166C 3014 2171 3020 2166 3030 2136C 3036 2116 3045 2100 3050 2100C 3055 2100 3060 2090 3062 2078C 3065 2058 3071 2055 3105 2055C 3170 2056 3175 2076 3173 2318C 3171 2490 3168 2526 3154 2548C 3143 2565 3138 2592 3139 2632C 3140 2664 3136 2690 3131 2690C 3125 2690 3124 2705 3126 2723C 3130 2747 3125 2765 3106 2793C 3092 2814 3078 2841 3074 2855C 3070 2871 3059 2881 3037 2886C 3019 2890 2995 2900 2982 2908C 2963 2921 2952 2921 2926 2912C 2886 2897 2761 2896 2724 2910C 2704 2918 2695 2918 2689 2909C 2684 2900 2677 2899 2668 2906C 2661 2912 2637 2918 2615 2919C 2593 2921 2573 2926 2572 2931C 2570 2936 2564 2937 2559 2934C 2553 2931 2538 2936 2524 2945C 2511 2954 2495 2958 2490 2955C 2484 2952 2480 2954 2480 2960C 2480 2966 2472 2970 2463 2968C 2441 2965 2397 2994 2408 3005C 2412 3010 2403 3006 2388 2997C 2362 2981 2360 2981 2350 2999C 2345 3010 2330 3020 2318 3022C 2305 3024 2296 3031 2297 3038C 2299 3044 2293 3050 2285 3050C 2277 3050 2270 3055 2270 3060C 2270 3074 2217 3073 2202 3058C 2196 3052 2187 3049 2184 3053C 2174 3063 2183 3070 2227 3086L2227 3086L2265 3101L2217 3097C 2185 3094 2161 3085 2145 3070C 2123 3050 2100 3056 2115 3079C 2118 3084 2116 3091 2110 3095C 2105 3098 2100 3110 2100 3121C 2100 3143 2079 3145 2035 3125zM2162 2765C 2192 2760 2216 2749 2231 2734C 2243 2721 2260 2710 2269 2710C 2277 2710 2294 2700 2307 2688C 2335 2662 2337 2676 2310 2710C 2268 2764 2293 2763 2369 2710C 2401 2687 2433 2658 2440 2645C 2447 2632 2456 2623 2460 2625C 2474 2633 2502 2603 2505 2577C 2507 2563 2511 2546 2515 2541C 2524 2525 2499 2450 2480 2437C 2470 2430 2459 2414 2455 2400C 2446 2369 2409 2328 2347 2283C 2320 2263 2301 2242 2304 2235C 2306 2228 2300 2214 2290 2205C 2274 2191 2265 2189 2243 2198C 2227 2204 2200 2211 2181 2214C 2163 2217 2132 2232 2113 2247C 2063 2287 2000 2353 2000 2366C 2000 2372 1989 2386 1975 2398C 1946 2423 1943 2455 1967 2469C 1983 2478 1983 2480 1968 2497C 1960 2507 1949 2531 1945 2550C 1938 2580 1939 2583 1953 2572C 1961 2565 1974 2561 1981 2562C 1991 2564 1994 2556 1993 2536C 1991 2509 1992 2509 2009 2524C 2019 2533 2030 2537 2033 2533C 2037 2530 2040 2541 2040 2558C 2040 2584 2036 2590 2019 2590C 2007 2590 1989 2600 1979 2612C 1959 2634 1960 2647 1981 2634C 1988 2630 2018 2625 2047 2623L2047 2623L2100 2619L2088 2647C 2082 2662 2068 2684 2058 2696C 2048 2707 2040 2722 2040 2728C 2040 2749 2075 2779 2095 2775C 2106 2773 2136 2768 2162 2765z" stroke="none" fill="#000000" fill-rule="nonzero" />
	<g transform="matrix(0.13339843 0 -0 -0.13339844 0 683)">
	</g>
    <path transform="matrix(0.13339843 0 -0 -0.13339844 0 683)"  d="M989 1976C 983 1969 985 1957 1014 1820C 1023 1779 1032 1718 1034 1685C 1048 1500 1098 1196 1129 1106C 1140 1074 1148 1044 1145 1040C 1142 1036 1146 1030 1154 1027C 1172 1020 1186 924 1171 906C 1165 899 1163 890 1167 887C 1170 883 1161 880 1145 880C 1118 880 1117 879 1123 836C 1129 794 1129 793 1102 797C 1087 800 1068 804 1060 807C 1034 817 1016 819 1006 812C 993 804 1033 792 1080 791C 1115 789 1115 789 1091 776C 1077 768 1060 764 1053 767C 1046 770 1040 767 1040 761C 1040 755 1043 751 1048 751C 1068 754 1081 749 1079 738C 1076 710 1081 702 1110 690C 1126 683 1142 668 1146 656C 1149 645 1159 627 1167 618C 1177 607 1182 581 1182 548C 1182 504 1178 492 1156 473C 1139 458 1116 450 1093 450C 1057 450 990 476 990 490C 990 495 980 502 968 506C 955 510 940 520 934 528C 924 541 920 540 901 521C 889 509 875 502 870 505C 865 508 842 505 820 499C 792 491 783 484 792 478C 799 474 801 470 795 470C 790 470 772 484 756 500C 740 517 721 530 715 530C 695 530 630 600 630 621C 630 632 626 638 620 635C 614 631 610 641 610 659C 610 675 613 690 618 692C 622 694 637 712 652 734C 680 774 679 800 651 801C 639 801 640 804 658 817C 685 836 686 850 660 850C 649 850 640 855 640 860C 640 866 649 870 660 870C 680 870 688 894 671 904C 654 915 629 859 621 787C 613 725 612 738 612 885C 611 1166 609 1207 600 1185C 595 1174 591 1148 591 1128C 590 1108 586 1081 581 1068C 577 1055 570 955 566 845C 562 725 555 641 548 632C 540 623 540 616 548 608C 574 582 552 383 525 394C 519 396 506 392 496 385C 484 376 470 374 447 381C 430 386 407 387 398 384C 385 380 377 386 371 403C 363 423 342 440 324 440C 314 440 321 393 332 382C 342 372 342 367 330 359C 317 351 317 348 333 339C 354 327 347 312 314 300C 299 294 290 282 290 270C 290 241 308 210 324 210C 340 210 382 166 374 158C 371 154 378 146 390 140C 402 134 409 123 407 117C 405 110 411 88 421 68C 432 47 440 24 440 15C 440 -8 660 -7 696 16C 715 29 732 31 773 26C 846 16 860 16 906 31C 939 41 955 41 993 29C 1019 22 1040 12 1040 8C 1040 4 1333 0 1690 0C 2192 0 2345 3 2361 12C 2378 22 2384 22 2387 13C 2390 6 2406 0 2423 0C 2452 0 2455 3 2455 33C 2455 50 2449 71 2442 79C 2432 90 2431 95 2440 100C 2456 110 2491 100 2484 88C 2476 76 2539 88 2557 102C 2573 115 2610 77 2610 46C 2610 29 2602 19 2583 12C 2560 3 2570 1 2638 1L2638 1L2720 0L2720 30C 2720 47 2725 60 2730 60C 2736 60 2740 47 2740 30C 2740 3 2743 0 2770 0C 2787 0 2815 7 2832 16C 2884 43 2949 59 2953 46C 2956 40 2963 47 2970 63C 2977 78 2987 90 2992 90C 3003 90 3002 43 2990 35C 2985 32 2983 23 2987 15C 2991 2 3056 0 3441 0L3441 0L3890 0L3900 26C 3906 40 3908 56 3905 60C 3902 65 3909 74 3920 80C 3955 99 3942 106 3879 102C 3828 98 3816 100 3808 114C 3802 124 3789 130 3776 128C 3760 126 3728 144 3679 180C 3601 238 3473 359 3477 371C 3479 375 3471 382 3460 385C 3449 389 3442 395 3445 400C 3448 405 3435 416 3416 424C 3381 439 3355 471 3368 485C 3372 490 3369 490 3362 486C 3354 481 3343 494 3329 527C 3318 553 3302 579 3294 583C 3286 587 3280 597 3280 603C 3280 610 3274 622 3268 629C 3261 635 3255 644 3254 648C 3252 667 3230 707 3216 719C 3207 726 3200 738 3200 744C 3200 751 3189 780 3175 808C 3161 837 3150 862 3150 866C 3150 871 3109 955 3078 1013C 3069 1031 3060 1056 3060 1070C 3059 1093 3058 1094 3049 1075C 3042 1060 3041 1067 3044 1103C 3048 1154 3035 1168 3026 1122C 3023 1107 3016 1048 3010 990C 2998 879 2988 850 2964 850C 2953 850 2949 859 2950 878C 2951 893 2952 943 2951 989C 2950 1058 2948 1070 2937 1061C 2929 1055 2920 1053 2917 1056C 2914 1060 2908 1050 2904 1035C 2899 1014 2902 1004 2914 995C 2930 983 2938 944 2921 954C 2917 957 2910 939 2906 913C 2899 861 2898 670 2905 670C 2917 670 2960 694 2960 701C 2960 705 2969 711 2979 715C 2990 718 3003 733 3009 748C 3018 774 3018 773 3019 735C 3019 699 3015 692 2973 661C 2948 642 2909 622 2888 615C 2844 603 2831 587 2830 550C 2829 527 2810 490 2798 490C 2796 490 2795 513 2796 541L2796 541L2799 593L2762 586C 2738 582 2718 571 2705 553C 2684 525 2678 470 2695 470C 2700 470 2695 463 2683 455C 2667 444 2655 442 2635 450C 2621 455 2563 460 2507 460C 2409 460 2393 456 2351 424C 2349 422 2352 415 2357 408C 2362 401 2370 387 2374 376C 2379 362 2376 359 2365 364C 2357 367 2350 364 2350 358C 2350 351 2343 355 2335 365C 2278 441 2284 437 2261 416C 2244 401 2239 400 2227 411C 2220 419 2210 436 2207 450C 2203 464 2189 488 2176 503L2176 503L2153 532L2137 493C 2127 468 2120 413 2118 344C 2116 252 2117 235 2130 235C 2140 235 2147 249 2151 275C 2156 314 2157 314 2164 287C 2169 272 2170 248 2167 235C 2165 221 2167 207 2171 204C 2176 201 2180 189 2180 176C 2180 157 2184 154 2209 158C 2240 162 2330 137 2368 114C 2395 96 2397 63 2370 55C 2345 47 2290 58 2290 71C 2290 76 2273 88 2253 97C 2232 107 2206 122 2195 131C 2184 140 2147 151 2113 155C 2061 161 2049 159 2044 146C 2035 122 1956 97 1909 103C 1831 113 1800 169 1818 268L1818 268L1827 319L1781 313C 1728 307 1659 334 1619 376C 1589 408 1585 497 1612 524C 1629 540 1628 544 1598 598C 1580 629 1560 659 1553 663C 1546 667 1540 677 1540 685C 1540 693 1527 715 1510 733C 1494 752 1480 772 1480 778C 1480 784 1464 803 1445 822C 1425 840 1400 873 1389 895C 1377 917 1355 951 1339 972C 1310 1008 1280 1078 1280 1108C 1280 1117 1257 1171 1229 1227C 1179 1330 1179 1331 1183 1413C 1187 1505 1190 1516 1219 1580C 1230 1605 1240 1633 1240 1643C 1240 1652 1245 1669 1251 1679C 1260 1692 1260 1705 1252 1729C 1245 1747 1245 1760 1251 1760C 1267 1760 1261 1782 1237 1804C 1212 1827 1207 1830 1185 1830C 1177 1830 1170 1836 1170 1844C 1170 1851 1161 1860 1150 1863C 1131 1868 1112 1915 1125 1928C 1129 1932 1150 1935 1173 1936C 1340 1938 1350 1946 1204 1960C 1150 1965 1080 1972 1050 1976C 1020 1979 992 1979 989 1976zM1339 625C 1356 594 1386 552 1406 530C 1438 495 1440 488 1434 453C 1430 432 1425 421 1423 428C 1416 448 1400 442 1400 419C 1400 408 1405 402 1410 405C 1416 408 1420 406 1420 401C 1420 395 1416 390 1411 390C 1398 390 1370 436 1370 458C 1370 469 1363 477 1354 477C 1340 477 1338 466 1343 398C 1347 338 1345 320 1335 320C 1328 320 1320 310 1317 298C 1304 251 1299 294 1295 461C 1293 615 1295 680 1305 680C 1307 680 1322 655 1339 625zM2965 327C 2959 119 2943 -8 2941 138C 2940 177 2938 210 2935 210C 2931 210 2916 203 2900 195C 2883 186 2870 183 2870 187C 2870 191 2865 189 2858 182C 2842 166 2830 167 2830 183C 2831 198 2875 250 2888 250C 2893 250 2905 259 2915 270C 2930 287 2932 302 2927 377C 2924 425 2917 466 2912 468C 2903 471 2956 529 2968 530C 2970 530 2969 439 2965 327z" stroke="none" fill="#000000" fill-rule="nonzero" />
	<g transform="matrix(0.13339843 0 -0 -0.13339844 0 683)">
	</g>
    <path transform="matrix(0.13339843 0 -0 -0.13339844 0 683)"  d="M3053 1361C 3046 1351 3041 1315 3042 1282L3042 1282L3043 1221L3134 1166C 3227 1110 3404 1026 3560 964C 3607 946 3688 913 3740 892C 3833 853 3835 852 3840 815C 3846 766 3879 742 3948 733C 3976 730 4005 721 4011 714C 4017 706 4030 700 4040 700C 4049 700 4072 690 4091 677C 4110 665 4153 637 4188 616C 4222 596 4250 575 4250 571C 4250 543 4219 199 4214 178C 4208 146 4187 127 4152 122C 4138 120 4119 115 4109 109C 4099 104 4080 100 4066 100C 4052 100 4040 96 4040 90C 4040 85 4044 80 4048 80C 4052 80 4062 64 4069 45C 4076 26 4086 10 4091 10C 4103 10 4143 32 4151 44C 4162 59 4212 40 4217 20C 4222 2 4232 0 4341 0C 4432 0 4460 3 4460 13C 4460 20 4455 31 4450 36C 4444 42 4437 119 4434 211C 4432 301 4426 398 4421 425L4421 425L4412 475L4411 425C 4409 378 4409 376 4396 399C 4388 413 4381 418 4379 411C 4376 404 4367 402 4357 405C 4343 411 4340 425 4340 476L4340 476L4340 541L4370 525C 4406 506 4431 506 4456 525C 4469 535 4490 537 4525 533C 4567 529 4578 531 4594 549C 4607 563 4625 570 4649 570C 4698 570 4840 678 4840 716C 4840 739 4837 740 4780 740C 4748 740 4709 745 4695 752C 4674 761 4667 761 4661 752C 4655 742 4643 744 4610 759L4610 759L4566 779L4543 754C 4531 741 4516 730 4510 730C 4505 730 4500 726 4500 720C 4500 715 4493 710 4484 710C 4476 710 4472 705 4475 699C 4479 693 4471 690 4453 692C 4430 694 4424 691 4422 673C 4418 648 4400 644 4372 661C 4358 670 4347 669 4323 656C 4295 642 4288 642 4255 656C 4213 673 4120 756 4120 776C 4120 783 4110 801 4097 816C 4077 839 4071 841 4053 830C 4021 809 4000 824 4000 867C 4000 917 4023 1002 4049 1045L4049 1045L4069 1080L4040 1095C 4024 1103 4004 1110 3995 1110C 3974 1110 3947 1083 3955 1070C 3958 1064 3955 1057 3947 1054C 3939 1051 3918 1027 3901 999C 3883 972 3865 950 3860 950C 3856 950 3829 966 3800 985C 3771 1004 3743 1020 3736 1020C 3730 1020 3712 1028 3695 1038C 3647 1067 3513 1120 3488 1120C 3475 1120 3459 1125 3452 1132C 3445 1139 3440 1140 3440 1136C 3440 1131 3434 1133 3426 1139C 3419 1145 3375 1169 3329 1192C 3283 1214 3241 1239 3237 1246C 3233 1254 3222 1260 3214 1260C 3206 1260 3192 1269 3183 1280C 3173 1291 3161 1300 3156 1300C 3151 1300 3140 1308 3131 1318C 3122 1328 3107 1339 3098 1343C 3088 1346 3080 1356 3080 1365C 3080 1386 3067 1384 3053 1361z" stroke="none" fill="#000000" fill-rule="nonzero" />
	<g transform="matrix(0.13339843 0 -0 -0.13339844 0 683)">
	</g>
    <path transform="matrix(0.13339843 0 -0 -0.13339844 0 683)"  d="M2829 1289C 2800 1245 2771 1170 2777 1155C 2784 1136 2761 1108 2746 1118C 2740 1122 2726 1125 2714 1125C 2691 1126 2654 1157 2664 1168C 2668 1171 2675 1168 2680 1160C 2685 1152 2692 1149 2696 1153C 2701 1157 2691 1186 2674 1216C 2645 1272 2607 1301 2587 1281C 2582 1276 2575 1228 2571 1173L2571 1173L2565 1075L2541 1099C 2525 1115 2521 1125 2528 1128C 2536 1130 2537 1137 2530 1150C 2522 1164 2525 1169 2541 1173C 2553 1176 2559 1183 2556 1189C 2552 1195 2543 1197 2535 1194C 2525 1190 2521 1198 2522 1230C 2522 1278 2519 1284 2491 1275C 2475 1270 2470 1259 2468 1232C 2465 1173 2467 1160 2490 1067C 2511 984 2513 980 2527 999C 2555 1040 2569 1025 2572 948C 2574 896 2579 876 2588 878C 2594 879 2600 876 2600 870C 2600 865 2606 863 2614 866C 2622 869 2626 879 2622 893C 2617 913 2616 913 2609 894C 2604 881 2601 880 2601 890C 2600 903 2599 903 2590 890C 2583 879 2580 878 2580 888C 2580 896 2589 915 2600 930C 2611 946 2617 965 2614 974C 2609 986 2612 989 2625 984C 2638 979 2641 970 2636 946C 2632 926 2633 920 2639 929C 2646 940 2649 939 2653 924C 2655 914 2658 922 2659 943C 2659 963 2663 980 2668 980C 2672 980 2686 964 2699 945C 2712 926 2726 910 2731 910C 2736 910 2749 928 2760 950C 2771 972 2785 990 2790 990C 2796 990 2800 942 2800 871C 2800 777 2803 750 2815 740C 2827 730 2828 724 2819 714C 2810 703 2811 700 2821 700C 2829 700 2825 691 2810 680L2810 680L2785 659L2820 662L2855 665L2857 942C 2858 1095 2855 1241 2852 1267L2852 1267L2845 1314L2829 1289z" stroke="none" fill="#000000" fill-rule="nonzero" />
	<g transform="matrix(0.13339843 0 -0 -0.13339844 0 683)">
	</g>
    <path transform="matrix(0.13339843 0 -0 -0.13339844 0 683)"  d="M4625 1139C 4603 1128 4576 1121 4566 1124C 4542 1130 4489 1104 4493 1087C 4494 1081 4487 1076 4478 1078C 4451 1082 4400 1052 4400 1031C 4400 1004 4425 998 4445 1020C 4455 1031 4482 1042 4509 1045C 4566 1053 4639 1078 4663 1098C 4680 1113 4687 1160 4673 1160C 4668 1159 4647 1150 4625 1139z" stroke="none" fill="#000000" fill-rule="nonzero" />
	<g transform="matrix(0.13339843 0 -0 -0.13339844 0 683)">
	</g>
    <path transform="matrix(0.13339843 0 -0 -0.13339844 0 683)"  d="M5020 127C 5020 119 5011 110 4999 107C 4986 103 4981 97 4986 89C 4991 80 4987 78 4972 82C 4960 86 4952 84 4956 79C 4959 74 4952 70 4942 70C 4915 70 4897 47 4912 32C 4921 23 4919 20 4902 20C 4886 20 4880 26 4880 41C 4880 52 4876 58 4870 55C 4865 52 4860 38 4860 25C 4860 2 4862 2 4954 1C 5042 1 5048 2 5043 21C 5039 36 5043 40 5062 40C 5093 40 5103 30 5089 13C 5080 3 5082 0 5099 0C 5118 0 5120 5 5119 53C 5118 103 5116 106 5086 116C 5069 122 5047 130 5038 135C 5025 140 5020 138 5020 127z" stroke="none" fill="#000000" fill-rule="nonzero" />
</g>
</svg>