<svg id="SvgjsSvg1001" width="24" height="24" xmlns="http://www.w3.org/2000/svg" version="1.1" xmlns:xlink="http://www.w3.org/1999/xlink" xmlns:svgjs="http://svgjs.com/svgjs"><defs id="SvgjsDefs1002"></defs><g id="SvgjsG1008" transform="matrix(1,0,0,1,0,0)"><svg xmlns="http://www.w3.org/2000/svg" width="24" height="24"><g transform="rotate(.412) scale(.03514)" fill="#ffffff" class="color000 svgShape"><path d="M4417 5043C4407 5027 4383 4384 4389 4301 4391 4268 4402 4303 4406 4357 4413 4459 4430 5043 4426 5047 4424 5050 4420 5048 4417 5043zM2470 5023C2430 5018 2407 5003 2417 4987 2421 4981 2415 4979 2400 4983 2384 4987 2372 4983 2363 4972 2352 4960 2347 4958 2344 4968 2341 4974 2333 4980 2327 4980 2321 4980 2308 4987 2298 4997 2276 5017 2262 5007 2280 4985 2299 4962 2273 4940 2219 4933 2155 4926 2142 4921 2159 4910 2170 4904 2165 4897 2139 4881 2102 4858 2085 4854 2095 4870 2098 4876 2096 4880 2091 4880 2085 4880 2080 4872 2080 4863 2080 4849 2078 4848 2071 4859 2062 4872 2040 4866 2040 4851 2040 4846 2021 4814 1998 4780 1926 4676 1927 4681 1926 4505 1925 4330 1941 4177 1963 4155 1971 4148 1987 4109 2000 4068 2013 4028 2033 3975 2045 3950 2081 3876 2094 3796 2079 3743 2073 3718 2061 3696 2053 3693 2040 3688 1993 3699 1930 3721 1896 3734 1728 3714 1681 3693 1661 3684 1629 3659 1609 3638 1589 3617 1568 3600 1563 3600 1557 3600 1550 3591 1547 3580 1544 3569 1535 3560 1527 3560 1519 3560 1510 3547 1507 3530 1502 3509 1495 3500 1481 3500 1466 3500 1459 3491 1454 3466 1450 3442 1444 3433 1434 3437 1425 3440 1420 3436 1420 3425 1420 3416 1406 3397 1389 3383 1362 3360 1359 3352 1361 3313 1363 3289 1359 3266 1354 3262 1348 3258 1341 3243 1338 3228 1327 3171 1398 3198 1541 3307 1604 3355 1698 3410 1824 3474 1928 3527 2015 3570 2017 3570 2019 3570 2020 3564 2020 3557 2020 3538 2072 3460 2081 3466 2099 3477 2140 3456 2162 3424 2185 3390 2240 3353 2240 3371 2240 3381 2270 3383 2294 3374 2303 3371 2310 3362 2310 3355 2310 3348 2315 3340 2320 3338 2326 3336 2332 3326 2334 3314 2342 3275 2369 3220 2382 3219 2389 3218 2404 3219 2416 3219 2445 3222 2507 3184 2513 3160 2518 3139 2554 3133 2579 3149 2589 3156 2607 3150 2636 3129 2659 3113 2681 3100 2684 3100 2698 3100 2688 3144 2665 3191 2641 3238 2640 3245 2650 3302 2662 3368 2709 3482 2730 3495 2737 3499 2756 3506 2774 3511 2823 3523 2921 3566 2938 3583 2948 3594 2955 3622 2956 3664 2958 3705 2967 3745 2979 3769 2990 3790 3004 3839 3010 3876 3016 3914 3028 3953 3037 3963 3062 3989 3039 4005 2975 4005 2933 4005 2917 4010 2901 4027 2887 4042 2884 4050 2893 4053 2900 4057 2899 4059 2889 4059 2880 4060 2867 4052 2858 4043 2839 4019 2818 3969 2825 3962 2828 3959 2830 3962 2830 3968 2830 3988 2854 3981 2872 3956 2889 3932 2889 3932 2858 3921 2841 3915 2820 3910 2812 3910 2803 3910 2779 3902 2759 3893 2729 3879 2722 3871 2726 3855 2729 3842 2725 3845 2715 3863 2699 3891 2685 3896 2661 3881 2650 3874 2643 3878 2633 3893 2607 3940 2599 3964 2605 3991 2608 4006 2606 4021 2601 4025 2585 4034 2588 4050 2605 4050 2613 4050 2620 4046 2620 4041 2620 4036 2631 4030 2645 4028 2670 4023 2679 4033 2660 4045 2653 4049 2653 4058 2660 4071 2669 4086 2667 4092 2655 4096 2647 4099 2640 4108 2640 4115 2640 4121 2632 4134 2623 4143 2606 4158 2601 4160 2582 4160 2578 4160 2569 4174 2561 4192 2550 4216 2550 4225 2558 4228 2565 4230 2570 4236 2570 4241 2570 4247 2567 4249 2563 4247 2558 4244 2543 4266 2527 4296L2527 4296 2500 4350 2526 4356C2540 4360 2563 4357 2576 4351 2590 4345 2606 4342 2611 4345 2626 4355 2621 4380 2605 4380 2597 4380 2585 4389 2578 4400 2571 4411 2557 4420 2548 4420 2525 4420 2525 4437 2548 4443 2558 4446 2554 4448 2538 4449 2503 4450 2501 4470 2535 4470 2549 4470 2562 4476 2564 4483 2566 4489 2573 4518 2579 4545 2613 4693 2655 4740 2754 4740 2799 4740 2814 4735 2854 4705 2879 4685 2900 4665 2900 4660 2900 4654 2905 4650 2911 4650 2917 4650 2920 4659 2917 4670 2913 4687 2915 4688 2930 4680 2973 4657 3040 4580 3041 4553 3041 4537 3044 4531 3047 4538 3049 4544 3058 4550 3065 4550 3073 4550 3083 4557 3088 4566 3096 4580 3098 4578 3104 4555 3110 4530 3112 4529 3129 4544 3144 4557 3145 4569 3139 4631 3129 4721 3105 4761 2996 4869L2996 4869 2910 4954 2850 4958C2812 4961 2793 4966 2797 4973 2801 4979 2795 4981 2781 4977 2769 4974 2716 4983 2662 4997 2554 5025 2521 5030 2470 5023z" transform="matrix(.1334 0 0 -.1334 0 683)" fill="#ffffff" class="color000 svgShape"></path><path d="M2750 4418C2717 4409 2701 4395 2700 4377 2700 4373 2706 4370 2713 4371 2719 4372 2732 4371 2740 4367 2748 4364 2762 4360 2770 4357 2779 4354 2765 4344 2735 4331 2668 4301 2657 4291 2671 4274 2683 4259 2724 4264 2748 4283 2757 4290 2767 4286 2784 4269 2797 4256 2815 4240 2823 4233 2831 4226 2840 4215 2843 4208 2846 4199 2854 4203 2868 4221 2879 4235 2909 4259 2934 4275 2991 4311 2994 4338 2948 4373 2918 4394 2817 4431 2794 4429 2789 4429 2769 4424 2750 4418zM2035 3125C2019 3117 1994 3111 1981 3110 1968 3110 1947 3099 1934 3085 1912 3061 1912 3060 1931 3060 1947 3060 1950 3055 1945 3041 1942 3030 1944 3013 1951 3002 1960 2988 1960 2978 1952 2964 1941 2946 1941 2946 1940 2966 1940 2978 1934 2993 1926 2999 1915 3009 1910 3007 1906 2992 1902 2981 1901 2967 1903 2959 1905 2951 1905 2948 1903 2951 1901 2955 1891 2956 1881 2953 1848 2945 1851 2889 1887 2792 1915 2720 1919 2697 1914 2655 1907 2597 1878 2494 1856 2452 1848 2436 1844 2413 1847 2402 1850 2390 1848 2380 1842 2380 1836 2380 1832 2365 1833 2346 1834 2327 1838 2314 1842 2316 1845 2318 1846 2293 1843 2260L1843 2260 1837 2200 1874 2200C1894 2200 1910 2195 1910 2189 1910 2183 1894 2180 1871 2181 1823 2185 1794 2165 1785 2123 1779 2095 1782 2089 1808 2076 1833 2063 1850 2042 1850 2023 1850 2018 1815 2025 1787 2036 1777 2039 1769 2031 1762 2010 1751 1980 1755 1950 1770 1950 1774 1950 1780 1941 1783 1929 1788 1912 1785 1909 1769 1913 1759 1916 1750 1914 1750 1909 1750 1904 1743 1900 1735 1900 1714 1900 1716 1872 1738 1867 1751 1863 1749 1862 1733 1861 1695 1859 1703 1816 1745 1790 1764 1778 1780 1764 1780 1759 1780 1754 1787 1750 1795 1750 1803 1750 1810 1744 1810 1738 1810 1729 1813 1730 1819 1739 1825 1748 1847 1755 1874 1755 1899 1756 1923 1759 1926 1763 1931 1767 1862 1810 1840 1815 1807 1824 1760 1856 1760 1870 1760 1873 1778 1886 1800 1899 1822 1911 1840 1917 1840 1911 1840 1906 1852 1900 1868 1898 1883 1896 1894 1891 1892 1885 1886 1869 1924 1861 1931 1878 1935 1888 1946 1879 1968 1845 1986 1818 2000 1790 2000 1781 2000 1760 2040 1680 2051 1680 2067 1680 2061 1731 2041 1758 2010 1802 1969 1891 1973 1903 1975 1910 1993 1889 2013 1858 2058 1788 2068 1782 2075 1817 2079 1832 2085 1854 2090 1865 2098 1883 2099 1882 2099 1859 2100 1838 2111 1825 2148 1801 2201 1767 2225 1761 2216 1785 2209 1804 2212 1804 2255 1786 2284 1773 2290 1773 2290 1785 2290 1802 2332 1799 2355 1780 2363 1773 2373 1770 2376 1773 2385 1782 2350 1829 2318 1852L2318 1852 2288 1873 2295 1851C2299 1836 2297 1830 2286 1830 2278 1830 2270 1824 2268 1816 2266 1808 2258 1805 2247 1809 2231 1815 2233 1820 2264 1852 2299 1888 2299 1888 2317 1868 2334 1848 2404 1800 2415 1800 2418 1800 2420 1816 2420 1835 2420 1854 2423 1870 2426 1870 2443 1870 2559 1806 2555 1800 2552 1795 2559 1794 2570 1797 2596 1804 2596 1788 2570 1765 2559 1755 2550 1752 2550 1758 2550 1765 2545 1770 2539 1770 2531 1770 2531 1766 2538 1757 2544 1750 2547 1734 2543 1722 2540 1707 2543 1698 2554 1694 2567 1689 2570 1671 2571 1601 2572 1554 2575 1527 2577 1543 2579 1558 2585 1568 2590 1565 2594 1562 2610 1576 2624 1594 2645 1623 2650 1639 2650 1689 2650 1723 2654 1750 2658 1750 2671 1750 2700 1715 2700 1700 2700 1693 2708 1682 2717 1675 2732 1664 2732 1657 2723 1626 2712 1592 2722 1574 2734 1605 2737 1613 2744 1620 2750 1620 2763 1620 2752 1577 2738 1572 2711 1561 2700 1535 2700 1479 2700 1352 2766 1312 2772 1435L2772 1435 2775 1495 2820 1506C2879 1521 2890 1511 2890 1443 2890 1397 2893 1389 2906 1394 2915 1397 2926 1400 2932 1400 2943 1400 2936 1577 2921 1720L2921 1720 2914 1785 2896 1727C2886 1695 2881 1666 2884 1663 2887 1660 2880 1650 2870 1641 2859 1632 2843 1612 2834 1595L2834 1595 2818 1565 2825 1604 2831 1642 2799 1638C2774 1634 2766 1637 2763 1651 2760 1662 2754 1667 2749 1664 2734 1655 2739 1692 2754 1704 2764 1712 2767 1730 2763 1773 2758 1821 2754 1830 2738 1830 2728 1830 2717 1838 2713 1848 2703 1876 2628 1939 2585 1956 2562 1964 2540 1981 2535 1993 2524 2017 2480 2030 2480 2008 2480 1998 2477 1999 2470 2010 2462 2022 2460 2021 2460 2003 2460 1990 2454 1980 2447 1980 2437 1980 2436 1995 2441 2048 2454 2162 2455 2160 2415 2160 2378 2160 2366 2174 2358 2231 2356 2250 2360 2256 2380 2258 2394 2259 2434 2267 2470 2275 2506 2283 2545 2291 2557 2293 2568 2295 2584 2300 2592 2306 2619 2326 2689 2352 2699 2346 2705 2342 2710 2332 2710 2323 2710 2314 2716 2310 2724 2313 2734 2317 2742 2308 2750 2285 2765 2238 2760 2204 2738 2208 2711 2212 2715 2174 2745 2142 2759 2127 2770 2107 2770 2097 2770 2087 2775 2082 2780 2085 2786 2088 2790 2098 2790 2106 2790 2115 2804 2133 2820 2147 2837 2161 2850 2182 2850 2194 2850 2224 2840 2233 2822 2218 2811 2208 2805 2210 2794 2225 2778 2247 2775 2320 2790 2320 2796 2320 2800 2327 2800 2335 2800 2349 2804 2349 2838 2335 2894 2312 2900 2298 2900 2193 2900 2117 2903 2100 2915 2100 2925 2100 2930 2110 2930 2130 2930 2154 2934 2160 2953 2160 2965 2160 2985 2163 2996 2166 3014 2171 3020 2166 3030 2136 3036 2116 3045 2100 3050 2100 3055 2100 3060 2090 3062 2078 3065 2058 3071 2055 3105 2055 3170 2056 3175 2076 3173 2318 3171 2490 3168 2526 3154 2548 3143 2565 3138 2592 3139 2632 3140 2664 3136 2690 3131 2690 3125 2690 3124 2705 3126 2723 3130 2747 3125 2765 3106 2793 3092 2814 3078 2841 3074 2855 3070 2871 3059 2881 3037 2886 3019 2890 2995 2900 2982 2908 2963 2921 2952 2921 2926 2912 2886 2897 2761 2896 2724 2910 2704 2918 2695 2918 2689 2909 2684 2900 2677 2899 2668 2906 2661 2912 2637 2918 2615 2919 2593 2921 2573 2926 2572 2931 2570 2936 2564 2937 2559 2934 2553 2931 2538 2936 2524 2945 2511 2954 2495 2958 2490 2955 2484 2952 2480 2954 2480 2960 2480 2966 2472 2970 2463 2968 2441 2965 2397 2994 2408 3005 2412 3010 2403 3006 2388 2997 2362 2981 2360 2981 2350 2999 2345 3010 2330 3020 2318 3022 2305 3024 2296 3031 2297 3038 2299 3044 2293 3050 2285 3050 2277 3050 2270 3055 2270 3060 2270 3074 2217 3073 2202 3058 2196 3052 2187 3049 2184 3053 2174 3063 2183 3070 2227 3086L2227 3086 2265 3101 2217 3097C2185 3094 2161 3085 2145 3070 2123 3050 2100 3056 2115 3079 2118 3084 2116 3091 2110 3095 2105 3098 2100 3110 2100 3121 2100 3143 2079 3145 2035 3125zM2162 2765C2192 2760 2216 2749 2231 2734 2243 2721 2260 2710 2269 2710 2277 2710 2294 2700 2307 2688 2335 2662 2337 2676 2310 2710 2268 2764 2293 2763 2369 2710 2401 2687 2433 2658 2440 2645 2447 2632 2456 2623 2460 2625 2474 2633 2502 2603 2505 2577 2507 2563 2511 2546 2515 2541 2524 2525 2499 2450 2480 2437 2470 2430 2459 2414 2455 2400 2446 2369 2409 2328 2347 2283 2320 2263 2301 2242 2304 2235 2306 2228 2300 2214 2290 2205 2274 2191 2265 2189 2243 2198 2227 2204 2200 2211 2181 2214 2163 2217 2132 2232 2113 2247 2063 2287 2000 2353 2000 2366 2000 2372 1989 2386 1975 2398 1946 2423 1943 2455 1967 2469 1983 2478 1983 2480 1968 2497 1960 2507 1949 2531 1945 2550 1938 2580 1939 2583 1953 2572 1961 2565 1974 2561 1981 2562 1991 2564 1994 2556 1993 2536 1991 2509 1992 2509 2009 2524 2019 2533 2030 2537 2033 2533 2037 2530 2040 2541 2040 2558 2040 2584 2036 2590 2019 2590 2007 2590 1989 2600 1979 2612 1959 2634 1960 2647 1981 2634 1988 2630 2018 2625 2047 2623L2047 2623 2100 2619 2088 2647C2082 2662 2068 2684 2058 2696 2048 2707 2040 2722 2040 2728 2040 2749 2075 2779 2095 2775 2106 2773 2136 2768 2162 2765zM989 1976C983 1969 985 1957 1014 1820 1023 1779 1032 1718 1034 1685 1048 1500 1098 1196 1129 1106 1140 1074 1148 1044 1145 1040 1142 1036 1146 1030 1154 1027 1172 1020 1186 924 1171 906 1165 899 1163 890 1167 887 1170 883 1161 880 1145 880 1118 880 1117 879 1123 836 1129 794 1129 793 1102 797 1087 800 1068 804 1060 807 1034 817 1016 819 1006 812 993 804 1033 792 1080 791 1115 789 1115 789 1091 776 1077 768 1060 764 1053 767 1046 770 1040 767 1040 761 1040 755 1043 751 1048 751 1068 754 1081 749 1079 738 1076 710 1081 702 1110 690 1126 683 1142 668 1146 656 1149 645 1159 627 1167 618 1177 607 1182 581 1182 548 1182 504 1178 492 1156 473 1139 458 1116 450 1093 450 1057 450 990 476 990 490 990 495 980 502 968 506 955 510 940 520 934 528 924 541 920 540 901 521 889 509 875 502 870 505 865 508 842 505 820 499 792 491 783 484 792 478 799 474 801 470 795 470 790 470 772 484 756 500 740 517 721 530 715 530 695 530 630 600 630 621 630 632 626 638 620 635 614 631 610 641 610 659 610 675 613 690 618 692 622 694 637 712 652 734 680 774 679 800 651 801 639 801 640 804 658 817 685 836 686 850 660 850 649 850 640 855 640 860 640 866 649 870 660 870 680 870 688 894 671 904 654 915 629 859 621 787 613 725 612 738 612 885 611 1166 609 1207 600 1185 595 1174 591 1148 591 1128 590 1108 586 1081 581 1068 577 1055 570 955 566 845 562 725 555 641 548 632 540 623 540 616 548 608 574 582 552 383 525 394 519 396 506 392 496 385 484 376 470 374 447 381 430 386 407 387 398 384 385 380 377 386 371 403 363 423 342 440 324 440 314 440 321 393 332 382 342 372 342 367 330 359 317 351 317 348 333 339 354 327 347 312 314 300 299 294 290 282 290 270 290 241 308 210 324 210 340 210 382 166 374 158 371 154 378 146 390 140 402 134 409 123 407 117 405 110 411 88 421 68 432 47 440 24 440 15 440-8 660-7 696 16 715 29 732 31 773 26 846 16 860 16 906 31 939 41 955 41 993 29 1019 22 1040 12 1040 8 1040 4 1333 0 1690 0 2192 0 2345 3 2361 12 2378 22 2384 22 2387 13 2390 6 2406 0 2423 0 2452 0 2455 3 2455 33 2455 50 2449 71 2442 79 2432 90 2431 95 2440 100 2456 110 2491 100 2484 88 2476 76 2539 88 2557 102 2573 115 2610 77 2610 46 2610 29 2602 19 2583 12 2560 3 2570 1 2638 1L2638 1 2720 0 2720 30C2720 47 2725 60 2730 60 2736 60 2740 47 2740 30 2740 3 2743 0 2770 0 2787 0 2815 7 2832 16 2884 43 2949 59 2953 46 2956 40 2963 47 2970 63 2977 78 2987 90 2992 90 3003 90 3002 43 2990 35 2985 32 2983 23 2987 15 2991 2 3056 0 3441 0L3441 0 3890 0 3900 26C3906 40 3908 56 3905 60 3902 65 3909 74 3920 80 3955 99 3942 106 3879 102 3828 98 3816 100 3808 114 3802 124 3789 130 3776 128 3760 126 3728 144 3679 180 3601 238 3473 359 3477 371 3479 375 3471 382 3460 385 3449 389 3442 395 3445 400 3448 405 3435 416 3416 424 3381 439 3355 471 3368 485 3372 490 3369 490 3362 486 3354 481 3343 494 3329 527 3318 553 3302 579 3294 583 3286 587 3280 597 3280 603 3280 610 3274 622 3268 629 3261 635 3255 644 3254 648 3252 667 3230 707 3216 719 3207 726 3200 738 3200 744 3200 751 3189 780 3175 808 3161 837 3150 862 3150 866 3150 871 3109 955 3078 1013 3069 1031 3060 1056 3060 1070 3059 1093 3058 1094 3049 1075 3042 1060 3041 1067 3044 1103 3048 1154 3035 1168 3026 1122 3023 1107 3016 1048 3010 990 2998 879 2988 850 2964 850 2953 850 2949 859 2950 878 2951 893 2952 943 2951 989 2950 1058 2948 1070 2937 1061 2929 1055 2920 1053 2917 1056 2914 1060 2908 1050 2904 1035 2899 1014 2902 1004 2914 995 2930 983 2938 944 2921 954 2917 957 2910 939 2906 913 2899 861 2898 670 2905 670 2917 670 2960 694 2960 701 2960 705 2969 711 2979 715 2990 718 3003 733 3009 748 3018 774 3018 773 3019 735 3019 699 3015 692 2973 661 2948 642 2909 622 2888 615 2844 603 2831 587 2830 550 2829 527 2810 490 2798 490 2796 490 2795 513 2796 541L2796 541 2799 593 2762 586C2738 582 2718 571 2705 553 2684 525 2678 470 2695 470 2700 470 2695 463 2683 455 2667 444 2655 442 2635 450 2621 455 2563 460 2507 460 2409 460 2393 456 2351 424 2349 422 2352 415 2357 408 2362 401 2370 387 2374 376 2379 362 2376 359 2365 364 2357 367 2350 364 2350 358 2350 351 2343 355 2335 365 2278 441 2284 437 2261 416 2244 401 2239 400 2227 411 2220 419 2210 436 2207 450 2203 464 2189 488 2176 503L2176 503 2153 532 2137 493C2127 468 2120 413 2118 344 2116 252 2117 235 2130 235 2140 235 2147 249 2151 275 2156 314 2157 314 2164 287 2169 272 2170 248 2167 235 2165 221 2167 207 2171 204 2176 201 2180 189 2180 176 2180 157 2184 154 2209 158 2240 162 2330 137 2368 114 2395 96 2397 63 2370 55 2345 47 2290 58 2290 71 2290 76 2273 88 2253 97 2232 107 2206 122 2195 131 2184 140 2147 151 2113 155 2061 161 2049 159 2044 146 2035 122 1956 97 1909 103 1831 113 1800 169 1818 268L1818 268 1827 319 1781 313C1728 307 1659 334 1619 376 1589 408 1585 497 1612 524 1629 540 1628 544 1598 598 1580 629 1560 659 1553 663 1546 667 1540 677 1540 685 1540 693 1527 715 1510 733 1494 752 1480 772 1480 778 1480 784 1464 803 1445 822 1425 840 1400 873 1389 895 1377 917 1355 951 1339 972 1310 1008 1280 1078 1280 1108 1280 1117 1257 1171 1229 1227 1179 1330 1179 1331 1183 1413 1187 1505 1190 1516 1219 1580 1230 1605 1240 1633 1240 1643 1240 1652 1245 1669 1251 1679 1260 1692 1260 1705 1252 1729 1245 1747 1245 1760 1251 1760 1267 1760 1261 1782 1237 1804 1212 1827 1207 1830 1185 1830 1177 1830 1170 1836 1170 1844 1170 1851 1161 1860 1150 1863 1131 1868 1112 1915 1125 1928 1129 1932 1150 1935 1173 1936 1340 1938 1350 1946 1204 1960 1150 1965 1080 1972 1050 1976 1020 1979 992 1979 989 1976zM1339 625C1356 594 1386 552 1406 530 1438 495 1440 488 1434 453 1430 432 1425 421 1423 428 1416 448 1400 442 1400 419 1400 408 1405 402 1410 405 1416 408 1420 406 1420 401 1420 395 1416 390 1411 390 1398 390 1370 436 1370 458 1370 469 1363 477 1354 477 1340 477 1338 466 1343 398 1347 338 1345 320 1335 320 1328 320 1320 310 1317 298 1304 251 1299 294 1295 461 1293 615 1295 680 1305 680 1307 680 1322 655 1339 625zM2965 327C2959 119 2943-8 2941 138 2940 177 2938 210 2935 210 2931 210 2916 203 2900 195 2883 186 2870 183 2870 187 2870 191 2865 189 2858 182 2842 166 2830 167 2830 183 2831 198 2875 250 2888 250 2893 250 2905 259 2915 270 2930 287 2932 302 2927 377 2924 425 2917 466 2912 468 2903 471 2956 529 2968 530 2970 530 2969 439 2965 327zM3053 1361C3046 1351 3041 1315 3042 1282L3042 1282 3043 1221 3134 1166C3227 1110 3404 1026 3560 964 3607 946 3688 913 3740 892 3833 853 3835 852 3840 815 3846 766 3879 742 3948 733 3976 730 4005 721 4011 714 4017 706 4030 700 4040 700 4049 700 4072 690 4091 677 4110 665 4153 637 4188 616 4222 596 4250 575 4250 571 4250 543 4219 199 4214 178 4208 146 4187 127 4152 122 4138 120 4119 115 4109 109 4099 104 4080 100 4066 100 4052 100 4040 96 4040 90 4040 85 4044 80 4048 80 4052 80 4062 64 4069 45 4076 26 4086 10 4091 10 4103 10 4143 32 4151 44 4162 59 4212 40 4217 20 4222 2 4232 0 4341 0 4432 0 4460 3 4460 13 4460 20 4455 31 4450 36 4444 42 4437 119 4434 211 4432 301 4426 398 4421 425L4421 425 4412 475 4411 425C4409 378 4409 376 4396 399 4388 413 4381 418 4379 411 4376 404 4367 402 4357 405 4343 411 4340 425 4340 476L4340 476 4340 541 4370 525C4406 506 4431 506 4456 525 4469 535 4490 537 4525 533 4567 529 4578 531 4594 549 4607 563 4625 570 4649 570 4698 570 4840 678 4840 716 4840 739 4837 740 4780 740 4748 740 4709 745 4695 752 4674 761 4667 761 4661 752 4655 742 4643 744 4610 759L4610 759 4566 779 4543 754C4531 741 4516 730 4510 730 4505 730 4500 726 4500 720 4500 715 4493 710 4484 710 4476 710 4472 705 4475 699 4479 693 4471 690 4453 692 4430 694 4424 691 4422 673 4418 648 4400 644 4372 661 4358 670 4347 669 4323 656 4295 642 4288 642 4255 656 4213 673 4120 756 4120 776 4120 783 4110 801 4097 816 4077 839 4071 841 4053 830 4021 809 4000 824 4000 867 4000 917 4023 1002 4049 1045L4049 1045 4069 1080 4040 1095C4024 1103 4004 1110 3995 1110 3974 1110 3947 1083 3955 1070 3958 1064 3955 1057 3947 1054 3939 1051 3918 1027 3901 999 3883 972 3865 950 3860 950 3856 950 3829 966 3800 985 3771 1004 3743 1020 3736 1020 3730 1020 3712 1028 3695 1038 3647 1067 3513 1120 3488 1120 3475 1120 3459 1125 3452 1132 3445 1139 3440 1140 3440 1136 3440 1131 3434 1133 3426 1139 3419 1145 3375 1169 3329 1192 3283 1214 3241 1239 3237 1246 3233 1254 3222 1260 3214 1260 3206 1260 3192 1269 3183 1280 3173 1291 3161 1300 3156 1300 3151 1300 3140 1308 3131 1318 3122 1328 3107 1339 3098 1343 3088 1346 3080 1356 3080 1365 3080 1386 3067 1384 3053 1361z" transform="matrix(.1334 0 0 -.1334 0 683)" fill="#ffffff" class="color000 svgShape"></path><path d="M2829 1289C2800 1245 2771 1170 2777 1155 2784 1136 2761 1108 2746 1118 2740 1122 2726 1125 2714 1125 2691 1126 2654 1157 2664 1168 2668 1171 2675 1168 2680 1160 2685 1152 2692 1149 2696 1153 2701 1157 2691 1186 2674 1216 2645 1272 2607 1301 2587 1281 2582 1276 2575 1228 2571 1173L2571 1173 2565 1075 2541 1099C2525 1115 2521 1125 2528 1128 2536 1130 2537 1137 2530 1150 2522 1164 2525 1169 2541 1173 2553 1176 2559 1183 2556 1189 2552 1195 2543 1197 2535 1194 2525 1190 2521 1198 2522 1230 2522 1278 2519 1284 2491 1275 2475 1270 2470 1259 2468 1232 2465 1173 2467 1160 2490 1067 2511 984 2513 980 2527 999 2555 1040 2569 1025 2572 948 2574 896 2579 876 2588 878 2594 879 2600 876 2600 870 2600 865 2606 863 2614 866 2622 869 2626 879 2622 893 2617 913 2616 913 2609 894 2604 881 2601 880 2601 890 2600 903 2599 903 2590 890 2583 879 2580 878 2580 888 2580 896 2589 915 2600 930 2611 946 2617 965 2614 974 2609 986 2612 989 2625 984 2638 979 2641 970 2636 946 2632 926 2633 920 2639 929 2646 940 2649 939 2653 924 2655 914 2658 922 2659 943 2659 963 2663 980 2668 980 2672 980 2686 964 2699 945 2712 926 2726 910 2731 910 2736 910 2749 928 2760 950 2771 972 2785 990 2790 990 2796 990 2800 942 2800 871 2800 777 2803 750 2815 740 2827 730 2828 724 2819 714 2810 703 2811 700 2821 700 2829 700 2825 691 2810 680L2810 680 2785 659 2820 662 2855 665 2857 942C2858 1095 2855 1241 2852 1267L2852 1267 2845 1314 2829 1289zM4625 1139C4603 1128 4576 1121 4566 1124 4542 1130 4489 1104 4493 1087 4494 1081 4487 1076 4478 1078 4451 1082 4400 1052 4400 1031 4400 1004 4425 998 4445 1020 4455 1031 4482 1042 4509 1045 4566 1053 4639 1078 4663 1098 4680 1113 4687 1160 4673 1160 4668 1159 4647 1150 4625 1139zM5020 127C5020 119 5011 110 4999 107 4986 103 4981 97 4986 89 4991 80 4987 78 4972 82 4960 86 4952 84 4956 79 4959 74 4952 70 4942 70 4915 70 4897 47 4912 32 4921 23 4919 20 4902 20 4886 20 4880 26 4880 41 4880 52 4876 58 4870 55 4865 52 4860 38 4860 25 4860 2 4862 2 4954 1 5042 1 5048 2 5043 21 5039 36 5043 40 5062 40 5093 40 5103 30 5089 13 5080 3 5082 0 5099 0 5118 0 5120 5 5119 53 5118 103 5116 106 5086 116 5069 122 5047 130 5038 135 5025 140 5020 138 5020 127z" transform="matrix(.1334 0 0 -.1334 0 683)" fill="#ffffff" class="color000 svgShape"></path></g></svg></g></svg>
