<?xml version="1.0" standalone="no"?>
<!DOCTYPE svg PUBLIC "-//W3C//DTD SVG 20010904//EN"
 "http://www.w3.org/TR/2001/REC-SVG-20010904/DTD/svg10.dtd">
<svg version="1.0" xmlns="http://www.w3.org/2000/svg"
 fill="#000000" height="24" viewBox="0 0 24 24" width="24"
 preserveAspectRatio="xMidYMid meet">
<metadata>
Created by potrace 1.16, written by Peter Selinger 2001-2019
</metadata>
<g transform="translate(0.000000,512.000000) scale(0.100000,-0.100000)"
fill="#000000" stroke="none">
<path d="M4417 5043 c-10 -16 -34 -659 -28 -742 2 -33 13 2 17 56 7 102 24
686 20 690 -2 3 -6 1 -9 -4z"/>
<path d="M2470 5023 c-40 -5 -63 -20 -53 -36 4 -6 -2 -8 -17 -4 -16 4 -28 0
-37 -11 -11 -12 -16 -14 -19 -4 -3 6 -11 12 -17 12 -6 0 -19 7 -29 17 -22 20
-36 10 -18 -12 19 -23 -7 -45 -61 -52 -64 -7 -77 -12 -60 -23 11 -6 6 -13 -20
-29 -37 -23 -54 -27 -44 -11 3 6 1 10 -4 10 -6 0 -11 -8 -11 -17 0 -14 -2 -15
-9 -4 -9 13 -31 7 -31 -8 0 -5 -19 -37 -42 -71 -72 -104 -71 -99 -72 -275 -1
-175 15 -328 37 -350 8 -7 24 -46 37 -87 13 -40 33 -93 45 -118 36 -74 49
-154 34 -207 -6 -25 -18 -47 -26 -50 -13 -5 -60 6 -123 28 -34 13 -202 -7
-249 -28 -20 -9 -52 -34 -72 -55 -20 -21 -41 -38 -46 -38 -6 0 -13 -9 -16 -20
-3 -11 -12 -20 -20 -20 -8 0 -17 -13 -20 -30 -5 -21 -12 -30 -26 -30 -15 0
-22 -9 -27 -34 -4 -24 -10 -33 -20 -29 -9 3 -14 -1 -14 -12 0 -9 -14 -28 -31
-42 -27 -23 -30 -31 -28 -70 2 -24 -2 -47 -7 -51 -6 -4 -13 -19 -16 -34 -11
-57 60 -30 203 79 63 48 157 103 283 167 104 53 191 96 193 96 2 0 3 -6 3 -13
0 -19 52 -97 61 -91 18 11 59 -10 81 -42 23 -34 78 -71 78 -53 0 10 30 12 54
3 9 -3 16 -12 16 -19 0 -7 5 -15 10 -17 6 -2 12 -12 14 -24 8 -39 35 -94 48
-95 7 -1 22 0 34 0 29 3 91 -35 97 -59 5 -21 41 -27 66 -11 10 7 28 1 57 -20
23 -16 45 -29 48 -29 14 0 4 44 -19 91 -24 47 -25 54 -15 111 12 66 59 180 80
193 7 4 26 11 44 16 49 12 147 55 164 72 10 11 17 39 18 81 2 41 11 81 23 105
11 21 25 70 31 107 6 38 18 77 27 87 25 26 2 42 -62 42 -42 0 -58 5 -74 22
-14 15 -17 23 -8 26 7 4 6 6 -4 6 -9 1 -22 -7 -31 -16 -19 -24 -40 -74 -33
-81 3 -3 5 0 5 6 0 20 24 13 42 -12 17 -24 17 -24 -14 -35 -17 -6 -38 -11 -46
-11 -9 0 -33 -8 -53 -17 -30 -14 -37 -22 -33 -38 3 -13 -1 -10 -11 8 -16 28
-30 33 -54 18 -11 -7 -18 -3 -28 12 -26 47 -34 71 -28 98 3 15 1 30 -4 34 -16
9 -13 25 4 25 8 0 15 -4 15 -9 0 -5 11 -11 25 -13 25 -5 34 5 15 17 -7 4 -7
13 0 26 9 15 7 21 -5 25 -8 3 -15 12 -15 19 0 6 -8 19 -17 28 -17 15 -22 17
-41 17 -4 0 -13 14 -21 32 -11 24 -11 33 -3 36 7 2 12 8 12 13 0 6 -3 8 -7 6
-5 -3 -20 19 -36 49 l-27 54 26 6 c14 4 37 1 50 -5 14 -6 30 -9 35 -6 15 10
10 35 -6 35 -8 0 -20 9 -27 20 -7 11 -21 20 -30 20 -23 0 -23 17 0 23 10 3 6
5 -10 6 -35 1 -37 21 -3 21 14 0 27 6 29 13 2 6 9 35 15 62 34 148 76 195 175
195 45 0 60 -5 100 -35 25 -20 46 -40 46 -45 0 -6 5 -10 11 -10 6 0 9 9 6 20
-4 17 -2 18 13 10 43 -23 110 -100 111 -127 0 -16 3 -22 6 -15 2 6 11 12 18
12 8 0 18 7 23 16 8 14 10 12 16 -11 6 -25 8 -26 25 -11 15 13 16 25 10 87
-10 90 -34 130 -143 238 l-86 85 -60 4 c-38 3 -57 8 -53 15 4 6 -2 8 -16 4
-12 -3 -65 6 -119 20 -108 28 -141 33 -192 26z"/>
<path d="M2750 4418 c-33 -9 -49 -23 -50 -41 0 -4 6 -7 13 -6 6 1 19 0 27 -4
8 -3 22 -7 30 -10 9 -3 -5 -13 -35 -26 -67 -30 -78 -40 -64 -57 12 -15 53 -10
77 9 9 7 19 3 36 -14 13 -13 31 -29 39 -36 8 -7 17 -18 20 -25 3 -9 11 -5 25
13 11 14 41 38 66 54 57 36 60 63 14 98 -30 21 -131 58 -154 56 -5 0 -25 -5
-44 -11z"/>
<path d="M2035 3125 c-16 -8 -41 -14 -54 -15 -13 0 -34 -11 -47 -25 -22 -24
-22 -25 -3 -25 16 0 19 -5 14 -19 -3 -11 -1 -28 6 -39 9 -14 9 -24 1 -38 -11
-18 -11 -18 -12 2 0 12 -6 27 -14 33 -11 10 -16 8 -20 -7 -4 -11 -5 -25 -3
-33 2 -8 2 -11 0 -8 -2 4 -12 5 -22 2 -33 -8 -30 -64 6 -161 28 -72 32 -95 27
-137 -7 -58 -36 -161 -58 -203 -8 -16 -12 -39 -9 -50 3 -12 1 -22 -5 -22 -6 0
-10 -15 -9 -34 1 -19 5 -32 9 -30 3 2 4 -23 1 -56 l-6 -60 37 0 c20 0 36 -5
36 -11 0 -6 -16 -9 -39 -8 -48 4 -77 -16 -86 -58 -6 -28 -3 -34 23 -47 25 -13
42 -34 42 -53 0 -5 -35 2 -63 13 -10 3 -18 -5 -25 -26 -11 -30 -7 -60 8 -60 4
0 10 -9 13 -21 5 -17 2 -20 -14 -16 -10 3 -19 1 -19 -4 0 -5 -7 -9 -15 -9 -21
0 -19 -28 3 -33 13 -4 11 -5 -5 -6 -38 -2 -30 -45 12 -71 19 -12 35 -26 35
-31 0 -5 7 -9 15 -9 8 0 15 -6 15 -12 0 -9 3 -8 9 1 6 9 28 16 55 16 25 1 49
4 52 8 5 4 -64 47 -86 52 -33 9 -80 41 -80 55 0 3 18 16 40 29 22 12 40 18 40
12 0 -5 12 -11 28 -13 15 -2 26 -7 24 -13 -6 -16 32 -24 39 -7 4 10 15 1 37
-33 18 -27 32 -55 32 -64 0 -21 40 -101 51 -101 16 0 10 51 -10 78 -31 44 -72
133 -68 145 2 7 20 -14 40 -45 45 -70 55 -76 62 -41 4 15 10 37 15 48 8 18 9
17 9 -6 1 -21 12 -34 49 -58 53 -34 77 -40 68 -16 -7 19 -4 19 39 1 29 -13 35
-13 35 -1 0 17 42 14 65 -5 8 -7 18 -10 21 -7 9 9 -26 56 -58 79 l-30 21 7
-22 c4 -15 2 -21 -9 -21 -8 0 -16 -6 -18 -14 -2 -8 -10 -11 -21 -7 -16 6 -14
11 17 43 35 36 35 36 53 16 17 -20 87 -68 98 -68 3 0 5 16 5 35 0 19 3 35 6
35 17 0 133 -64 129 -70 -3 -5 4 -6 15 -3 26 7 26 -9 0 -32 -11 -10 -20 -13
-20 -7 0 7 -5 12 -11 12 -8 0 -8 -4 -1 -13 6 -7 9 -23 5 -35 -3 -15 0 -24 11
-28 13 -5 16 -23 17 -93 1 -47 4 -74 6 -58 2 15 8 25 13 22 4 -3 20 11 34 29
21 29 26 45 26 95 0 34 4 61 8 61 13 0 42 -35 42 -50 0 -7 8 -18 17 -25 15
-11 15 -18 6 -49 -11 -34 -1 -52 11 -21 3 8 10 15 16 15 13 0 2 -43 -12 -48
-27 -11 -38 -37 -38 -93 0 -127 66 -167 72 -44 l3 60 45 11 c59 15 70 5 70
-63 0 -46 3 -54 16 -49 9 3 20 6 26 6 11 0 4 177 -11 320 l-7 65 -18 -58 c-10
-32 -15 -61 -12 -64 3 -3 -4 -13 -14 -22 -11 -9 -27 -29 -36 -46 l-16 -30 7
39 6 38 -32 -4 c-25 -4 -33 -1 -36 13 -3 11 -9 16 -14 13 -15 -9 -10 28 5 40
10 8 13 26 9 69 -5 48 -9 57 -25 57 -10 0 -21 8 -25 18 -10 28 -85 91 -128
108 -23 8 -45 25 -50 37 -11 24 -55 37 -55 15 0 -10 -3 -9 -10 2 -8 12 -10 11
-10 -7 0 -13 -6 -23 -13 -23 -10 0 -11 15 -6 68 13 114 14 112 -26 112 -37 0
-49 14 -57 71 -2 19 2 25 22 27 14 1 54 9 90 17 36 8 75 16 87 18 11 2 27 7
35 13 27 20 97 46 107 40 6 -4 11 -14 11 -23 0 -9 6 -13 14 -10 10 4 18 -5 26
-28 15 -47 10 -81 -12 -77 -27 4 -23 -34 7 -66 14 -15 25 -35 25 -45 0 -10 5
-15 10 -12 6 3 10 13 10 21 0 9 14 27 30 41 17 14 30 35 30 47 0 30 -10 39
-28 24 -11 -10 -17 -8 -28 7 -16 22 -19 95 -4 95 6 0 10 7 10 15 0 14 4 14 38
0 56 -23 62 -37 62 -142 0 -76 3 -93 15 -93 10 0 15 10 15 30 0 24 4 30 23 30
12 0 32 3 43 6 18 5 24 0 34 -30 6 -20 15 -36 20 -36 5 0 10 -10 12 -22 3 -20
9 -23 43 -23 65 1 70 21 68 263 -2 172 -5 208 -19 230 -11 17 -16 44 -15 84 1
32 -3 58 -8 58 -6 0 -7 15 -5 33 4 24 -1 42 -20 70 -14 21 -28 48 -32 62 -4
16 -15 26 -37 31 -18 4 -42 14 -55 22 -19 13 -30 13 -56 4 -40 -15 -165 -16
-202 -2 -20 8 -29 8 -35 -1 -5 -9 -12 -10 -21 -3 -7 6 -31 12 -53 13 -22 2
-42 7 -43 12 -2 5 -8 6 -13 3 -6 -3 -21 2 -35 11 -13 9 -29 13 -34 10 -6 -3
-10 -1 -10 5 0 6 -8 10 -17 8 -22 -3 -66 26 -55 37 4 5 -5 1 -20 -8 -26 -16
-28 -16 -38 2 -5 11 -20 21 -32 23 -13 2 -22 9 -21 16 2 6 -4 12 -12 12 -8 0
-15 5 -15 10 0 14 -53 13 -68 -2 -6 -6 -15 -9 -18 -5 -10 10 -1 17 43 33 l38
15 -48 -4 c-32 -3 -56 -12 -72 -27 -22 -20 -45 -14 -30 9 3 5 1 12 -5 16 -5 3
-10 15 -10 26 0 22 -21 24 -65 4z m127 -360 c30 -5 54 -16 69 -31 12 -13 29
-24 38 -24 8 0 25 -10 38 -22 28 -26 30 -12 3 22 -42 54 -17 53 59 0 32 -23
64 -52 71 -65 7 -13 16 -22 20 -20 14 8 42 -22 45 -48 2 -14 6 -31 10 -36 9
-16 -16 -91 -35 -104 -10 -7 -21 -23 -25 -37 -9 -31 -46 -72 -108 -117 -27
-20 -46 -41 -43 -48 2 -7 -4 -21 -14 -30 -16 -14 -25 -16 -47 -7 -16 6 -43 13
-62 16 -18 3 -49 18 -68 33 -50 40 -113 106 -113 119 0 6 -11 20 -25 32 -29
25 -32 57 -8 71 16 9 16 11 1 28 -8 10 -19 34 -23 53 -7 30 -6 33 8 22 8 -7
21 -11 28 -10 10 2 13 -6 12 -26 -2 -27 -1 -27 16 -12 10 9 21 13 24 9 4 -3 7
8 7 25 0 26 -4 32 -21 32 -12 0 -30 10 -40 22 -20 22 -19 35 2 22 7 -4 37 -9
66 -11 l53 -4 -12 28 c-6 15 -20 37 -30 49 -10 11 -18 26 -18 32 0 21 35 51
55 47 11 -2 41 -7 67 -10z"/>
<path d="M989 1976 c-6 -7 -4 -19 25 -156 9 -41 18 -102 20 -135 14 -185 64
-489 95 -579 11 -32 19 -62 16 -66 -3 -4 1 -10 9 -13 18 -7 32 -103 17 -121
-6 -7 -8 -16 -4 -19 3 -4 -6 -7 -22 -7 -27 0 -28 -1 -22 -44 6 -42 6 -43 -21
-39 -15 3 -34 7 -42 10 -26 10 -44 12 -54 5 -13 -8 27 -20 74 -21 35 -2 35 -2
11 -15 -14 -8 -31 -12 -38 -9 -7 3 -13 0 -13 -6 0 -6 3 -10 8 -10 20 3 33 -2
31 -13 -3 -28 2 -36 31 -48 16 -7 32 -22 36 -34 3 -11 13 -29 21 -38 10 -11
15 -37 15 -70 0 -44 -4 -56 -26 -75 -17 -15 -40 -23 -63 -23 -36 0 -103 26
-103 40 0 5 -10 12 -22 16 -13 4 -28 14 -34 22 -10 13 -14 12 -33 -7 -12 -12
-26 -19 -31 -16 -5 3 -28 0 -50 -6 -28 -8 -37 -15 -28 -21 7 -4 9 -8 3 -8 -5
0 -23 14 -39 30 -16 17 -35 30 -41 30 -20 0 -85 70 -85 91 0 11 -4 17 -10 14
-6 -4 -10 6 -10 24 0 16 3 31 8 33 4 2 19 20 34 42 28 40 27 66 -1 67 -12 0
-11 3 7 16 27 19 28 33 2 33 -11 0 -20 5 -20 10 0 6 9 10 20 10 20 0 28 24 11
34 -17 11 -42 -45 -50 -117 -8 -62 -9 -49 -9 98 -1 281 -3 322 -12 300 -5 -11
-9 -37 -9 -57 -1 -20 -5 -47 -10 -60 -4 -13 -11 -113 -15 -223 -4 -120 -11
-204 -18 -213 -8 -9 -8 -16 0 -24 26 -26 4 -225 -23 -214 -6 2 -19 -2 -29 -9
-12 -9 -26 -11 -49 -4 -17 5 -40 6 -49 3 -13 -4 -21 2 -27 19 -8 20 -29 37
-47 37 -10 0 -3 -47 8 -58 10 -10 10 -15 -2 -23 -13 -8 -13 -11 3 -20 21 -12
14 -27 -19 -39 -15 -6 -24 -18 -24 -30 0 -29 18 -60 34 -60 16 0 58 -44 50
-52 -3 -4 4 -12 16 -18 12 -6 19 -17 17 -23 -2 -7 4 -29 14 -49 11 -21 19 -44
19 -53 0 -23 220 -22 256 1 19 13 36 15 77 10 73 -10 87 -10 133 5 33 10 49
10 87 -2 26 -7 47 -17 47 -21 0 -4 293 -8 650 -8 502 0 655 3 671 12 17 10 23
10 26 1 3 -7 19 -13 36 -13 29 0 32 3 32 33 0 17 -6 38 -13 46 -10 11 -11 16
-2 21 16 10 51 0 44 -12 -8 -12 55 0 73 14 16 13 53 -25 53 -56 0 -17 -8 -27
-27 -34 -23 -9 -13 -11 55 -11 l82 -1 0 30 c0 17 5 30 10 30 6 0 10 -13 10
-30 0 -27 3 -30 30 -30 17 0 45 7 62 16 52 27 117 43 121 30 3 -6 10 1 17 17
7 15 17 27 22 27 11 0 10 -47 -2 -55 -5 -3 -7 -12 -3 -20 4 -13 69 -15 454
-15 l449 0 10 26 c6 14 8 30 5 34 -3 5 4 14 15 20 35 19 22 26 -41 22 -51 -4
-63 -2 -71 12 -6 10 -19 16 -32 14 -16 -2 -48 16 -97 52 -78 58 -206 179 -202
191 2 4 -6 11 -17 14 -11 4 -18 10 -15 15 3 5 -10 16 -29 24 -35 15 -61 47
-48 61 4 5 1 5 -6 1 -8 -5 -19 8 -33 41 -11 26 -27 52 -35 56 -8 4 -14 14 -14
20 0 7 -6 19 -12 26 -7 6 -13 15 -14 19 -2 19 -24 59 -38 71 -9 7 -16 19 -16
25 0 7 -11 36 -25 64 -14 29 -25 54 -25 58 0 5 -41 89 -72 147 -9 18 -18 43
-18 57 -1 23 -2 24 -11 5 -7 -15 -8 -8 -5 28 4 51 -9 65 -18 19 -3 -15 -10
-74 -16 -132 -12 -111 -22 -140 -46 -140 -11 0 -15 9 -14 28 1 15 2 65 1 111
-1 69 -3 81 -14 72 -8 -6 -17 -8 -20 -5 -3 4 -9 -6 -13 -21 -5 -21 -2 -31 10
-40 16 -12 24 -51 7 -41 -4 3 -11 -15 -15 -41 -7 -52 -8 -243 -1 -243 12 0 55
24 55 31 0 4 9 10 19 14 11 3 24 18 30 33 9 26 9 25 10 -13 0 -36 -4 -43 -46
-74 -25 -19 -64 -39 -85 -46 -44 -12 -57 -28 -58 -65 -1 -23 -20 -60 -32 -60
-2 0 -3 23 -2 51 l3 52 -37 -7 c-24 -4 -44 -15 -57 -33 -21 -28 -27 -83 -10
-83 5 0 0 -7 -12 -15 -16 -11 -28 -13 -48 -5 -14 5 -72 10 -128 10 -98 0 -114
-4 -156 -36 -2 -2 1 -9 6 -16 5 -7 13 -21 17 -32 5 -14 2 -17 -9 -12 -8 3 -15
0 -15 -6 0 -7 -7 -3 -15 7 -57 76 -51 72 -74 51 -17 -15 -22 -16 -34 -5 -7 8
-17 25 -20 39 -4 14 -18 38 -31 53 l-23 29 -16 -39 c-10 -25 -17 -80 -19 -149
-2 -92 -1 -109 12 -109 10 0 17 14 21 40 5 39 6 39 13 12 5 -15 6 -39 3 -52
-2 -14 0 -28 4 -31 5 -3 9 -15 9 -28 0 -19 4 -22 29 -18 31 4 121 -21 159 -44
27 -18 29 -51 2 -59 -25 -8 -80 3 -80 16 0 5 -17 17 -37 26 -21 10 -47 25 -58
34 -11 9 -48 20 -82 24 -52 6 -64 4 -69 -9 -9 -24 -88 -49 -135 -43 -78 10
-109 66 -91 165 l9 51 -46 -6 c-53 -6 -122 21 -162 63 -30 32 -34 121 -7 148
17 16 16 20 -14 74 -18 31 -38 61 -45 65 -7 4 -13 14 -13 22 0 8 -13 30 -30
48 -16 19 -30 39 -30 45 0 6 -16 25 -35 44 -20 18 -45 51 -56 73 -12 22 -34
56 -50 77 -29 36 -59 106 -59 136 0 9 -23 63 -51 119 -50 103 -50 104 -46 186
4 92 7 103 36 167 11 25 21 53 21 63 0 9 5 26 11 36 9 13 9 26 1 50 -7 18 -7
31 -1 31 16 0 10 22 -14 44 -25 23 -30 26 -52 26 -8 0 -15 6 -15 14 0 7 -9 16
-20 19 -19 5 -38 52 -25 65 4 4 25 7 48 8 167 2 177 10 31 24 -54 5 -124 12
-154 16 -30 3 -58 3 -61 0z m350 -1351 c17 -31 47 -73 67 -95 32 -35 34 -42
28 -77 -4 -21 -9 -32 -11 -25 -7 20 -23 14 -23 -9 0 -11 5 -17 10 -14 6 3 10
1 10 -4 0 -6 -4 -11 -9 -11 -13 0 -41 46 -41 68 0 11 -7 19 -16 19 -14 0 -16
-11 -11 -79 4 -60 2 -78 -8 -78 -7 0 -15 -10 -18 -22 -13 -47 -18 -4 -22 163
-2 154 0 219 10 219 2 0 17 -25 34 -55z m1626 -298 c-6 -208 -22 -335 -24
-189 -1 39 -3 72 -6 72 -4 0 -19 -7 -35 -15 -17 -9 -30 -12 -30 -8 0 4 -5 2
-12 -5 -16 -16 -28 -15 -28 1 1 15 45 67 58 67 5 0 17 9 27 20 15 17 17 32 12
107 -3 48 -10 89 -15 91 -9 3 44 61 56 62 2 0 1 -91 -3 -203z"/>
<path d="M3053 1361 c-7 -10 -12 -46 -11 -79 l1 -61 91 -55 c93 -56 270 -140
426 -202 47 -18 128 -51 180 -72 93 -39 95 -40 100 -77 6 -49 39 -73 108 -82
28 -3 57 -12 63 -19 6 -8 19 -14 29 -14 9 0 32 -10 51 -23 19 -12 62 -40 97
-61 34 -20 62 -41 62 -45 0 -28 -31 -372 -36 -393 -6 -32 -27 -51 -62 -56 -14
-2 -33 -7 -43 -13 -10 -5 -29 -9 -43 -9 -14 0 -26 -4 -26 -10 0 -5 4 -10 8
-10 4 0 14 -16 21 -35 7 -19 17 -35 22 -35 12 0 52 22 60 34 11 15 61 -4 66
-24 5 -18 15 -20 124 -20 91 0 119 3 119 13 0 7 -5 18 -10 23 -6 6 -13 83 -16
175 -2 90 -8 187 -13 214 l-9 50 -1 -50 c-2 -47 -2 -49 -15 -26 -8 14 -15 19
-17 12 -3 -7 -12 -9 -22 -6 -14 6 -17 20 -17 71 l0 65 30 -16 c36 -19 61 -19
86 0 13 10 34 12 69 8 42 -4 53 -2 69 16 13 14 31 21 55 21 49 0 191 108 191
146 0 23 -3 24 -60 24 -32 0 -71 5 -85 12 -21 9 -28 9 -34 0 -6 -10 -18 -8
-51 7 l-44 20 -23 -25 c-12 -13 -27 -24 -33 -24 -5 0 -10 -4 -10 -10 0 -5 -7
-10 -16 -10 -8 0 -12 -5 -9 -11 4 -6 -4 -9 -22 -7 -23 2 -29 -1 -31 -19 -4
-25 -22 -29 -50 -12 -14 9 -25 8 -49 -5 -28 -14 -35 -14 -68 0 -42 17 -135
100 -135 120 0 7 -10 25 -23 40 -20 23 -26 25 -44 14 -32 -21 -53 -6 -53 37 0
50 23 135 49 178 l20 35 -29 15 c-16 8 -36 15 -45 15 -21 0 -48 -27 -40 -40 3
-6 0 -13 -8 -16 -8 -3 -29 -27 -46 -55 -18 -27 -36 -49 -41 -49 -4 0 -31 16
-60 35 -29 19 -57 35 -64 35 -6 0 -24 8 -41 18 -48 29 -182 82 -207 82 -13 0
-29 5 -36 12 -7 7 -12 8 -12 4 0 -5 -6 -3 -14 3 -7 6 -51 30 -97 53 -46 22
-88 47 -92 54 -4 8 -15 14 -23 14 -8 0 -22 9 -31 20 -10 11 -22 20 -27 20 -5
0 -16 8 -25 18 -9 10 -24 21 -33 25 -10 3 -18 13 -18 22 0 21 -13 19 -27 -4z"/>
<path d="M2829 1289 c-29 -44 -58 -119 -52 -134 7 -19 -16 -47 -31 -37 -6 4
-20 7 -32 7 -23 1 -60 32 -50 43 4 3 11 0 16 -8 5 -8 12 -11 16 -7 5 4 -5 33
-22 63 -29 56 -67 85 -87 65 -5 -5 -12 -53 -16 -108 l-6 -98 -24 24 c-16 16
-20 26 -13 29 8 2 9 9 2 22 -8 14 -5 19 11 23 12 3 18 10 15 16 -4 6 -13 8
-21 5 -10 -4 -14 4 -13 36 0 48 -3 54 -31 45 -16 -5 -21 -16 -23 -43 -3 -59
-1 -72 22 -165 21 -83 23 -87 37 -68 28 41 42 26 45 -51 2 -52 7 -72 16 -70 6
1 12 -2 12 -8 0 -5 6 -7 14 -4 8 3 12 13 8 27 -5 20 -6 20 -13 1 -5 -13 -8
-14 -8 -4 -1 13 -2 13 -11 0 -7 -11 -10 -12 -10 -2 0 8 9 27 20 42 11 16 17
35 14 44 -5 12 -2 15 11 10 13 -5 16 -14 11 -38 -4 -20 -3 -26 3 -17 7 11 10
10 14 -5 2 -10 5 -2 6 19 0 20 4 37 9 37 4 0 18 -16 31 -35 13 -19 27 -35 32
-35 5 0 18 18 29 40 11 22 25 40 30 40 6 0 10 -48 10 -119 0 -94 3 -121 15
-131 12 -10 13 -16 4 -26 -9 -11 -8 -14 2 -14 8 0 4 -9 -11 -20 l-25 -21 35 3
35 3 2 277 c1 153 -2 299 -5 325 l-7 47 -16 -25z"/>
<path d="M4625 1139 c-22 -11 -49 -18 -59 -15 -24 6 -77 -20 -73 -37 1 -6 -6
-11 -15 -9 -27 4 -78 -26 -78 -47 0 -27 25 -33 45 -11 10 11 37 22 64 25 57 8
130 33 154 53 17 15 24 62 10 62 -5 -1 -26 -10 -48 -21z"/>
<path d="M5020 127 c0 -8 -9 -17 -21 -20 -13 -4 -18 -10 -13 -18 5 -9 1 -11
-14 -7 -12 4 -20 2 -16 -3 3 -5 -4 -9 -14 -9 -27 0 -45 -23 -30 -38 9 -9 7
-12 -10 -12 -16 0 -22 6 -22 21 0 11 -4 17 -10 14 -5 -3 -10 -17 -10 -30 0
-23 2 -23 94 -24 88 0 94 1 89 20 -4 15 0 19 19 19 31 0 41 -10 27 -27 -9 -10
-7 -13 10 -13 19 0 21 5 20 53 -1 50 -3 53 -33 63 -17 6 -39 14 -48 19 -13 5
-18 3 -18 -8z"/>
</g>
</svg>
