<?xml version="1.0" standalone="no"?>
<!DOCTYPE svg PUBLIC "-//W3C//DTD SVG 20010904//EN"
 "http://www.w3.org/TR/2001/REC-SVG-20010904/DTD/svg10.dtd">
<svg version="1.0" xmlns="http://www.w3.org/2000/svg"
 width="937.000000pt" height="937.000000pt" viewBox="0 0 937.000000 937.000000"
 preserveAspectRatio="xMidYMid meet">
<metadata>
Created by potrace 1.16, written by Peter Selinger 2001-2019
</metadata>
<g transform="translate(0.000000,937.000000) scale(0.100000,-0.100000)"
fill="#000000" stroke="none">
<path d="M3093 9289 c-40 -93 -72 -338 -74 -564 -1 -162 10 -274 31 -330 5
-14 19 -63 30 -108 21 -80 66 -212 81 -232 4 -6 33 -66 63 -134 51 -113 54
-123 33 -118 -12 3 -42 11 -67 17 -276 68 -743 277 -982 439 -26 18 -60 33
-75 34 l-28 2 2 -100 c2 -112 12 -151 97 -385 63 -174 126 -287 263 -470 110
-149 249 -306 307 -349 35 -26 43 -37 32 -43 -47 -26 -355 -37 -516 -18 -108
13 -218 38 -248 57 -36 22 -55 10 -47 -29 9 -41 104 -231 139 -278 46 -61 189
-203 241 -238 65 -45 173 -102 191 -102 8 0 32 -9 53 -19 41 -22 216 -81 237
-81 22 0 24 -16 9 -59 -17 -50 -80 -312 -94 -396 -20 -120 -41 -331 -37 -380
2 -27 5 -57 5 -66 1 -9 8 -19 16 -23 22 -8 134 92 196 176 l54 72 6 -124 c4
-69 11 -177 17 -240 6 -63 14 -198 17 -300 4 -102 9 -188 11 -192 3 -4 5 -37
5 -73 1 -93 32 -100 58 -13 7 24 22 53 32 67 10 13 19 29 19 35 0 25 157 328
162 314 3 -8 33 -48 66 -89 36 -45 70 -101 87 -144 15 -38 31 -74 35 -80 5 -5
13 -30 20 -54 6 -24 29 -83 51 -133 21 -49 39 -95 39 -103 0 -42 43 5 104 113
l40 69 57 -26 56 -26 -18 -37 c-11 -21 -19 -42 -19 -48 0 -6 -16 -46 -36 -88
-86 -183 -199 -454 -254 -612 -12 -36 -28 -78 -35 -95 -8 -16 -23 -64 -34
-105 -12 -41 -43 -140 -70 -220 l-48 -145 -57 -7 c-31 -4 -73 -12 -94 -18 -54
-14 -141 -77 -177 -128 -28 -40 -30 -51 -33 -144 -2 -55 1 -137 8 -182 10 -70
58 -263 90 -362 5 -17 10 -38 10 -47 0 -9 11 -33 25 -53 14 -20 25 -43 25 -51
0 -8 9 -26 20 -40 11 -14 20 -32 20 -41 0 -8 15 -38 34 -66 18 -28 44 -71 57
-95 65 -121 128 -146 397 -158 78 -3 142 -10 142 -15 0 -4 -4 -8 -9 -8 -5 0
-34 -23 -65 -50 l-55 -51 -38 19 c-21 10 -65 24 -98 31 -33 7 -88 19 -122 27
-99 22 -284 10 -396 -27 -114 -38 -220 -91 -258 -129 -17 -16 -34 -30 -39 -30
-29 0 -230 -254 -230 -290 0 -10 -6 -25 -14 -33 -19 -18 -53 -165 -61 -255
-14 -186 72 -445 191 -572 l43 -46 -88 -17 c-158 -31 -255 -71 -249 -105 18
-94 617 -175 1558 -212 342 -13 1378 -13 1720 0 943 37 1540 118 1558 213 4
21 -46 52 -119 73 -56 16 -57 16 -38 35 10 10 23 19 27 19 16 0 98 95 138 160
118 189 167 416 129 600 -35 172 -87 286 -175 379 -17 19 -39 44 -48 55 -35
42 -243 166 -280 166 -7 0 -15 6 -18 14 -3 8 -14 16 -25 19 -12 3 -19 14 -19
29 0 12 -11 47 -25 75 -18 39 -33 57 -60 70 -44 21 -45 35 -2 29 86 -13 186
-16 209 -5 70 31 112 173 106 357 -3 107 -6 122 -35 182 -18 36 -43 79 -57 95
l-26 30 -112 -1 c-76 0 -127 -5 -155 -16 l-42 -15 19 37 c22 42 46 50 161 50
69 0 119 23 119 56 0 8 4 14 8 14 5 0 19 19 32 43 20 35 25 58 26 137 3 117
-12 156 -90 238 -57 60 -151 112 -301 167 -70 26 -113 45 -150 68 -11 7 -45
26 -75 44 -31 17 -75 50 -99 72 -24 22 -68 55 -98 73 -30 18 -103 80 -161 138
-59 58 -127 124 -152 146 -71 64 -99 102 -149 204 -52 106 -116 217 -155 269
l-26 35 68 17 c139 36 251 79 375 144 71 37 130 65 131 63 3 -3 30 -200 45
-322 16 -130 41 -120 129 54 26 52 76 148 110 214 34 65 66 133 71 150 7 24 9
7 10 -71 1 -60 5 -105 12 -108 6 -4 8 -13 5 -20 -6 -16 19 -39 32 -31 24 15
86 176 148 381 38 128 38 129 74 110 39 -20 168 -49 332 -74 255 -39 311 -23
182 52 -88 52 -127 88 -197 182 l-60 80 109 8 c248 17 540 100 652 184 58 44
48 53 -182 164 -187 90 -343 180 -361 209 -4 6 15 10 52 10 55 0 118 11 263
47 36 9 114 41 173 71 97 48 108 56 103 75 -3 12 -6 25 -6 30 0 4 -6 7 -13 7
-8 0 -54 24 -103 53 -49 30 -110 64 -137 77 -26 13 -55 32 -64 42 -9 10 -20
18 -25 18 -12 0 -130 82 -189 131 -26 22 -51 39 -56 39 -17 0 -140 123 -191
192 -38 50 -53 82 -62 125 -42 213 -141 483 -221 601 -16 24 -29 46 -29 49 0
11 -94 137 -153 206 -32 37 -88 91 -124 120 l-66 51 159 23 c87 13 173 25 191
28 41 6 130 40 169 64 72 44 155 203 153 291 0 29 -27 96 -49 125 -29 38 -175
151 -230 178 -108 52 -219 59 -299 17 -36 -19 -117 -98 -138 -136 -42 -77 -63
-123 -69 -151 l-6 -33 33 17 c19 9 48 26 64 37 48 35 146 60 207 53 45 -5 58
-12 86 -44 17 -21 41 -57 53 -80 20 -41 20 -43 3 -78 -34 -73 -162 -147 -317
-184 -105 -25 -141 -20 -204 30 -26 21 -59 47 -73 57 -40 30 -137 77 -250 122
-58 22 -121 48 -140 57 -178 80 -519 116 -840 89 l-95 -8 -35 42 c-38 46 -244
240 -324 305 -27 22 -77 63 -110 91 -77 64 -246 187 -328 238 -35 22 -92 58
-128 81 -209 135 -586 339 -651 352 -24 5 -29 1 -46 -38z m174 -72 c108 -53
385 -210 478 -272 28 -18 95 -61 150 -95 101 -64 210 -143 320 -233 33 -27 80
-66 105 -86 119 -96 321 -291 360 -348 14 -20 19 -21 100 -12 222 25 446 21
595 -11 28 -6 73 -15 101 -19 54 -9 345 -122 448 -173 63 -31 185 -119 225
-162 25 -27 50 -33 67 -17 5 5 52 19 104 32 214 52 355 149 375 259 7 37 -2
60 -44 119 l-24 33 44 -7 c24 -4 59 -13 77 -21 17 -7 32 -11 32 -9 0 1 -25 19
-55 40 -55 36 -130 62 -215 74 -45 7 -154 -11 -175 -29 -6 -5 -23 -14 -38 -19
l-28 -11 27 49 c14 28 39 63 54 78 59 60 158 89 222 64 13 -5 41 -14 63 -21
65 -21 138 -74 231 -167 37 -37 61 -117 48 -161 -4 -15 -8 -35 -9 -45 -1 -10
-19 -42 -40 -72 -29 -43 -50 -60 -98 -83 -100 -47 -221 -73 -431 -91 -60 -5
-113 -14 -119 -20 -13 -13 2 -27 124 -127 41 -33 95 -85 121 -115 60 -71 148
-190 148 -200 0 -4 13 -27 29 -51 15 -24 55 -104 89 -178 59 -134 96 -255 127
-420 18 -101 27 -114 124 -206 172 -162 377 -312 591 -432 25 -14 55 -34 68
-43 l23 -18 -68 -34 c-125 -63 -300 -100 -448 -95 -124 4 -131 -7 -48 -79 89
-77 181 -132 380 -228 100 -48 180 -92 177 -97 -8 -13 -94 -55 -160 -77 -32
-11 -120 -34 -194 -51 -111 -26 -161 -32 -280 -34 -124 -3 -145 -6 -148 -20
-8 -37 130 -223 211 -288 38 -30 44 -38 26 -34 -13 3 -71 12 -129 21 -126 19
-248 49 -289 69 l-29 16 25 67 c42 112 91 278 134 450 31 127 38 167 29 183
-23 44 -31 28 -70 -145 -11 -49 -27 -112 -35 -140 -61 -208 -80 -266 -124
-390 -27 -77 -66 -195 -86 -262 -20 -68 -45 -142 -55 -165 l-20 -43 0 148 c0
82 -4 178 -10 215 -5 37 -14 153 -20 257 -11 220 -22 330 -57 585 -14 102 -25
196 -25 210 0 14 -5 33 -10 43 -5 10 -16 50 -24 90 -32 149 -44 203 -53 234
-10 33 6 84 30 98 5 4 26 32 46 63 26 40 37 69 37 97 1 47 -14 59 -30 24 -44
-95 -63 -127 -89 -152 -43 -40 -141 -88 -175 -85 -15 1 -35 -4 -43 -11 -12 -9
-11 -3 4 25 29 58 22 164 -18 246 -29 60 -30 67 -26 164 4 84 2 102 -12 114
-26 22 -34 1 -46 -115 -12 -127 -32 -178 -106 -269 -40 -49 -138 -124 -164
-126 -4 0 -5 30 -3 67 8 132 -41 302 -127 443 -69 113 -109 159 -144 169 -73
20 -160 -28 -209 -115 -27 -49 -32 -69 -17 -78 18 -11 38 5 59 49 33 69 99
107 144 84 14 -8 12 -13 -19 -44 -23 -23 -33 -42 -31 -57 4 -28 36 -36 45 -11
8 25 44 63 58 63 7 0 20 -9 29 -19 17 -18 17 -21 1 -45 -19 -28 -14 -56 9 -56
8 0 19 7 24 16 7 13 14 8 35 -29 65 -110 103 -256 93 -356 -13 -137 -16 -126
31 -129 32 -2 55 4 100 29 32 18 66 39 77 48 25 22 101 122 121 160 8 17 18
31 20 31 16 0 35 -68 35 -127 0 -60 -4 -75 -35 -126 -39 -65 -40 -70 -22 -85
9 -8 40 -4 112 14 55 14 104 30 109 35 19 18 25 8 46 -63 12 -40 25 -82 30
-93 8 -19 58 -272 79 -405 16 -98 41 -387 48 -550 6 -158 6 -159 -69 -296 -40
-72 -182 -244 -202 -244 -6 0 -35 -20 -67 -45 -49 -39 -141 -85 -169 -85 -6 0
-10 9 -10 20 0 11 -4 28 -10 38 -5 9 -21 65 -35 123 -26 107 -113 339 -139
368 -7 9 -25 39 -40 66 -14 28 -36 62 -48 77 -32 37 -136 98 -169 98 -15 0
-29 4 -31 9 -1 5 -73 17 -158 26 -130 15 -210 17 -500 12 -190 -3 -356 -8
-370 -11 -241 -52 -247 -55 -326 -178 -75 -114 -128 -243 -168 -404 -20 -82
-36 -157 -36 -166 0 -34 -20 -27 -117 35 -65 43 -120 89 -162 136 -70 79 -150
181 -151 194 0 4 -14 26 -30 49 -17 23 -42 78 -56 122 -24 78 -61 321 -65 436
-6 136 25 280 89 420 11 25 32 75 45 110 41 110 71 170 86 170 7 0 47 -18 88
-41 94 -52 104 -47 88 48 -13 77 -5 139 28 222 25 63 39 72 55 37 17 -37 80
-103 131 -139 25 -17 55 -39 66 -49 25 -24 63 -34 76 -21 7 7 7 31 -1 71 -10
51 -10 73 4 132 9 40 25 93 37 118 l22 47 8 -37 c23 -101 104 -211 193 -263
116 -68 387 -121 402 -80 4 11 -2 22 -17 33 -59 40 -86 78 -109 152 -21 67
-22 82 -13 160 10 88 46 181 82 214 16 15 20 14 51 -14 25 -23 36 -27 47 -19
19 17 17 25 -22 62 -26 26 -32 36 -23 45 7 7 17 12 23 12 18 0 51 -41 69 -82
16 -41 27 -46 45 -24 14 17 -8 78 -41 113 -19 20 -19 23 -4 29 53 20 154 -34
196 -106 27 -46 56 -63 65 -38 7 17 -36 96 -67 125 -38 35 -107 66 -157 71
-89 8 -201 -79 -266 -207 -42 -85 -58 -163 -53 -261 5 -78 10 -97 41 -154 l36
-66 -38 5 c-47 6 -165 42 -206 62 -147 75 -229 271 -181 435 21 73 20 88 -3
88 -15 0 -24 -15 -40 -62 -12 -34 -21 -73 -21 -87 0 -14 -14 -46 -30 -70 -43
-63 -80 -188 -80 -267 l0 -65 -28 15 c-48 25 -132 107 -154 150 -15 28 -22 67
-26 128 -3 54 -10 92 -18 99 -22 18 -36 -26 -33 -100 3 -60 1 -70 -24 -103
-47 -61 -71 -142 -71 -240 -1 -78 -3 -85 -17 -72 -8 8 -20 14 -26 14 -14 0
-110 87 -123 110 -5 9 -14 59 -21 111 -6 52 -15 98 -19 102 -3 4 -12 -23 -19
-60 -10 -52 -10 -78 -1 -113 6 -25 13 -53 14 -63 1 -9 8 -23 14 -29 16 -16 15
-40 -2 -80 -8 -18 -31 -80 -52 -138 -41 -114 -114 -281 -175 -402 -47 -92 -49
-116 -6 -65 l32 37 -3 -110 c-2 -62 2 -142 9 -183 7 -39 12 -78 10 -85 -4 -21
38 -172 70 -251 20 -52 26 -77 19 -86 -6 -7 -33 -57 -60 -111 -28 -55 -67
-132 -88 -173 l-39 -74 -6 63 c-4 35 -7 120 -7 189 0 69 -5 167 -10 216 -5 50
-13 184 -16 298 l-7 208 -29 -28 c-16 -15 -50 -56 -75 -90 -25 -35 -52 -63
-60 -63 -7 0 -13 -3 -13 -7 0 -5 -19 -27 -41 -51 -28 -29 -45 -40 -52 -33 -5
5 -6 18 -2 28 4 10 9 54 11 98 5 77 31 231 59 345 52 210 79 306 106 380 37
104 40 123 16 128 -26 5 -43 -13 -58 -64 l-14 -45 -50 7 c-27 3 -61 12 -75 19
-14 7 -69 27 -124 45 -190 63 -291 135 -441 314 -52 62 -133 211 -122 222 2 3
46 -3 98 -13 131 -24 515 -24 607 0 35 10 72 17 83 17 35 0 20 34 -43 92 -35
32 -66 58 -69 58 -11 0 -179 197 -260 305 -98 130 -183 267 -216 347 -68 166
-132 376 -138 446 -3 39 -1 72 4 72 4 0 20 -9 34 -20 59 -46 281 -166 447
-239 223 -100 398 -164 563 -205 128 -32 129 -32 150 -72 22 -38 67 -61 67
-33 0 11 -57 107 -70 119 -12 10 -58 97 -78 145 -11 28 -36 88 -55 135 -56
136 -103 287 -127 405 -21 100 -22 126 -16 305 3 107 14 257 25 332 16 126 30
168 52 168 4 0 57 -24 116 -53z m1913 -3984 c86 -20 173 -88 235 -181 68 -103
211 -511 187 -533 -12 -11 -103 -38 -222 -65 -107 -25 -135 -27 -420 -31 -296
-5 -451 3 -560 29 -25 5 -109 31 -187 56 -167 54 -157 37 -123 210 20 102 56
208 111 330 16 35 29 67 29 72 0 10 62 69 85 83 13 7 226 33 335 41 75 5 499
-4 530 -11z m1209 -299 c7 -71 6 -85 -15 -143 -14 -35 -37 -87 -53 -115 -16
-28 -49 -90 -74 -137 -25 -47 -50 -95 -55 -105 -5 -10 -21 -40 -33 -67 l-24
-47 -7 82 c-4 46 -11 127 -15 180 l-8 98 87 87 c48 49 88 92 88 97 0 4 15 29
33 55 18 25 39 59 45 75 7 16 15 27 17 24 3 -2 9 -40 14 -84z m-2329 -438 c66
-25 133 -47 148 -49 15 -3 72 -16 127 -30 162 -40 297 -50 630 -44 231 3 317
8 374 21 41 9 78 13 82 9 23 -24 146 -231 184 -311 53 -110 104 -175 206 -264
41 -36 102 -94 135 -129 90 -93 474 -369 514 -369 26 0 112 -31 140 -50 14
-10 54 -29 89 -44 67 -27 153 -103 171 -151 6 -15 11 -68 13 -118 2 -86 0 -95
-27 -140 -27 -46 -57 -67 -93 -67 -11 0 -7 9 13 33 39 46 56 92 48 132 -10 57
-29 50 -48 -17 -14 -49 -26 -69 -64 -104 -62 -58 -102 -68 -69 -19 20 31 37
97 37 149 0 39 -6 52 -35 85 -49 54 -80 65 -167 56 -69 -6 -75 -9 -103 -44
l-30 -37 -32 65 c-18 36 -33 72 -33 80 0 15 -26 48 -91 119 -37 40 -166 126
-215 144 -19 6 -34 16 -34 20 0 4 -17 11 -39 14 -21 3 -44 9 -50 13 -7 5 -26
55 -42 112 -32 111 -50 142 -71 121 -10 -10 -6 -34 18 -116 l30 -103 -36 8
c-19 5 -53 9 -75 9 -23 0 -58 9 -80 20 -22 11 -45 20 -51 20 -25 0 -399 191
-428 219 -17 16 -80 79 -141 141 -104 107 -265 230 -300 230 -8 0 -15 -9 -15
-19 0 -14 27 -38 84 -76 54 -36 134 -106 226 -199 l142 -145 157 -78 c86 -43
179 -88 206 -100 28 -12 44 -22 38 -23 -7 0 -13 -9 -13 -20 0 -19 7 -20 108
-20 108 -1 252 -26 275 -49 6 -6 18 -11 27 -11 23 0 140 -59 140 -71 0 -5 6
-9 13 -9 20 -1 87 -56 118 -99 58 -78 109 -189 109 -235 0 -72 -11 -104 -49
-144 -20 -21 -31 -31 -25 -23 6 9 10 39 8 66 -8 124 -18 153 -47 142 -11 -4
-13 -21 -10 -79 4 -62 1 -80 -19 -118 -27 -53 -94 -96 -133 -86 -23 6 -23 8
-11 39 55 132 3 263 -128 323 -90 41 -148 37 -213 -14 -71 -57 -141 -69 -393
-71 -217 -2 -276 4 -490 50 -112 24 -156 39 -260 90 -141 68 -199 103 -285
169 -33 26 -85 63 -115 83 -30 20 -71 52 -89 71 -39 40 -71 47 -71 16 0 -24
43 -64 150 -140 42 -30 110 -79 151 -108 41 -30 142 -87 224 -128 135 -66 165
-76 295 -103 210 -44 289 -53 440 -48 74 3 146 5 160 4 64 -3 159 3 182 12
l26 10 1 -81 c2 -99 18 -138 72 -177 50 -37 104 -53 177 -54 47 -1 58 -6 90
-37 20 -19 53 -58 72 -85 36 -50 75 -79 139 -101 33 -11 38 -18 57 -81 12 -37
24 -85 27 -105 6 -43 8 -42 -98 -58 -38 -6 -97 -17 -130 -24 l-60 -13 -19 39
c-10 21 -24 38 -31 38 -7 0 -25 16 -39 35 -15 19 -67 74 -117 123 l-91 88 26
39 c32 47 35 85 6 85 -11 0 -20 -3 -20 -7 0 -5 -10 -25 -23 -46 l-23 -38 -82
59 c-125 91 -217 124 -217 78 0 -12 12 -22 37 -30 47 -17 120 -60 161 -95 18
-15 40 -32 49 -37 46 -25 282 -272 339 -354 13 -19 46 -59 74 -88 27 -29 63
-72 78 -95 26 -38 27 -42 10 -45 -67 -12 -93 -24 -93 -42 0 -27 12 -31 51 -19
19 6 63 12 99 14 36 3 78 7 93 11 20 5 33 1 47 -11 42 -38 12 -75 -61 -75 -45
0 -49 -2 -49 -24 0 -13 -3 -31 -6 -40 -4 -11 0 -16 14 -16 12 0 24 4 27 10 3
5 25 14 48 21 57 15 97 54 97 95 0 18 -4 36 -10 39 -22 14 -10 35 21 35 63 0
79 -63 27 -104 -30 -23 -32 -27 -17 -42 30 -29 88 20 98 84 6 33 10 37 40 40
41 4 71 -21 71 -58 0 -37 -33 -63 -88 -70 -39 -4 -48 -9 -50 -28 -3 -16 2 -22
17 -22 29 0 33 -14 16 -57 -13 -33 -31 -48 -120 -102 -81 -48 -114 -75 -147
-118 -55 -72 -124 -115 -193 -121 -69 -6 -151 13 -191 43 -18 14 -35 25 -38
25 -3 0 -29 15 -58 34 -29 18 -81 48 -116 65 -35 18 -93 51 -130 75 -37 23
-101 54 -142 69 -41 14 -108 37 -149 52 -85 29 -147 62 -314 164 -65 40 -164
93 -220 118 -56 24 -113 53 -127 62 -16 11 -63 22 -129 30 -113 14 -323 64
-449 109 -124 44 -267 128 -337 199 -94 95 -172 265 -196 428 -14 95 1 248 37
371 13 46 24 91 24 100 0 16 88 291 98 309 8 12 46 121 111 315 55 161 102
283 160 410 101 219 120 260 125 260 2 0 59 -20 126 -44z m-706 -1387 c-26
-100 -37 -255 -24 -343 18 -126 98 -324 152 -378 10 -10 18 -23 18 -29 0 -21
110 -116 171 -149 32 -17 59 -34 59 -36 0 -8 -57 5 -107 23 -41 15 -73 13 -73
-6 0 -30 139 -73 317 -96 56 -7 106 -16 111 -19 23 -14 288 -76 368 -85 75 -9
108 -19 180 -55 49 -24 106 -49 127 -56 21 -6 36 -14 34 -16 -9 -9 -783 -5
-952 6 -221 13 -293 25 -324 53 -34 32 -121 167 -121 188 0 10 -6 22 -14 26
-46 27 -179 410 -206 593 -6 41 -11 118 -11 170 0 87 3 98 28 134 53 74 149
124 244 125 l36 1 -13 -51z m2510 -87 c69 -37 101 -89 101 -162 -1 -36 -7 -66
-18 -83 -25 -38 -21 -62 14 -91 40 -34 86 -34 135 -1 20 14 48 25 61 25 63 0
136 65 182 164 45 93 73 124 128 137 67 15 110 11 139 -15 24 -20 28 -30 25
-72 -1 -30 -12 -67 -27 -94 -14 -25 -39 -79 -56 -120 -17 -41 -37 -82 -44 -90
-7 -8 -36 -41 -63 -72 -72 -82 -94 -136 -95 -233 0 -44 5 -99 12 -123 17 -55
70 -108 148 -144 42 -19 65 -37 69 -51 17 -61 26 -74 48 -70 32 6 57 -17 77
-70 l18 -47 -29 0 c-24 0 -28 4 -26 22 3 36 -29 34 -51 -2 l-19 -31 -6 39 c-4
21 -17 47 -29 59 -25 22 -101 36 -133 23 -13 -5 -28 -1 -44 11 -28 22 -81 25
-119 5 -15 -7 -45 -16 -67 -19 -22 -3 -48 -8 -57 -12 -13 -5 -27 9 -61 62 -24
37 -64 84 -88 103 l-43 34 74 18 c41 9 114 22 162 29 48 7 89 18 92 24 4 12
-3 49 -35 168 -15 56 -15 67 -3 67 8 0 14 9 14 20 0 15 -14 23 -67 39 -90 27
-125 50 -163 108 -39 57 -107 123 -129 123 -116 3 -197 27 -235 69 -9 10 -22
43 -28 74 -15 71 1 129 48 174 53 50 102 51 188 5z m971 -417 c25 -5 60 -56
87 -126 25 -65 29 -213 9 -303 -11 -52 -15 -57 -25 -40 -6 10 -11 35 -11 54 0
58 -17 49 -33 -17 -17 -72 -38 -85 -77 -46 -36 36 -48 93 -43 208 4 100 26
174 55 183 14 4 47 -57 58 -106 4 -19 12 -31 18 -29 16 6 10 54 -12 99 -13 26
-15 40 -7 48 18 18 -27 54 -58 46 -35 -9 -82 -76 -95 -137 -16 -72 -13 -207 4
-267 33 -109 145 -162 185 -87 7 14 15 23 17 21 6 -6 -13 -41 -33 -60 -51 -51
-347 19 -430 102 -55 54 -69 161 -34 259 25 72 68 116 150 156 95 46 187 60
275 42z m-2037 -809 c26 -14 67 -38 91 -55 42 -28 43 -30 20 -35 -69 -16 -148
-25 -279 -35 -80 -6 -188 -16 -241 -23 -53 -6 -111 -8 -128 -5 -16 4 -33 3
-35 -2 -3 -5 -25 -12 -49 -15 -54 -8 -98 -35 -155 -95 l-45 -47 -51 54 c-28
30 -77 72 -109 95 l-58 40 38 39 c20 21 64 52 98 68 l60 30 375 3 c206 1 385
3 398 5 12 1 44 -9 70 -22z m1783 -55 c-6 -10 -9 -32 -6 -48 2 -15 12 -90 21
-166 8 -75 17 -145 19 -155 2 -9 4 -19 4 -22 1 -3 28 -12 60 -19 72 -16 105
-48 150 -142 36 -77 42 -165 16 -252 -16 -56 -99 -171 -119 -164 -23 8 -17 40
13 71 18 18 40 56 51 84 34 90 20 196 -23 179 -13 -5 -15 -16 -11 -54 8 -60
-9 -124 -41 -160 -21 -24 -26 -26 -35 -13 -5 8 -10 22 -10 31 0 32 -36 52 -84
47 -58 -7 -65 10 -15 35 43 21 64 63 55 109 -15 77 -65 108 -173 108 -77 0
-129 -20 -180 -68 -46 -43 -51 -81 -27 -202 5 -24 5 -24 -10 -6 -22 27 -29 94
-17 162 15 79 69 157 133 193 26 14 50 33 53 43 3 9 1 45 -5 80 -16 100 -14
115 19 134 37 22 71 82 71 125 0 28 5 36 30 48 17 7 38 23 48 36 19 26 29 16
13 -14z m-3268 -72 l6 -21 32 23 c29 20 36 21 76 11 24 -7 61 -12 83 -12 21 0
42 -4 45 -10 3 -5 15 -10 26 -10 10 0 19 -4 19 -10 0 -5 -4 -10 -9 -10 -5 0
-11 -9 -14 -21 -4 -16 -2 -19 11 -13 9 4 41 9 70 10 62 4 103 -17 144 -72 25
-34 26 -38 11 -49 -15 -11 -15 -13 5 -19 12 -4 26 -5 32 -1 19 12 52 -17 97
-86 25 -39 42 -73 39 -76 -3 -4 -1 -12 6 -20 8 -10 8 -12 -4 -8 -9 4 -18 0
-21 -9 -7 -18 8 -30 28 -22 20 7 27 -7 41 -84 7 -36 15 -75 19 -88 6 -18 4
-21 -9 -16 -22 9 -20 -11 6 -46 18 -25 20 -33 9 -56 -6 -14 -9 -41 -5 -59 6
-34 -13 -143 -28 -160 -4 -5 -8 -18 -8 -30 -1 -18 -1 -18 -11 -2 -15 25 -33
21 -24 -5 20 -64 4 -99 -81 -184 l-42 -41 -13 26 c-14 26 -14 26 -17 -18 -4
-48 -15 -62 -72 -87 -19 -8 -37 -18 -40 -22 -6 -9 -88 -62 -95 -62 -3 0 0 8 6
19 13 20 6 51 -11 51 -5 0 -16 -16 -25 -35 -18 -44 -63 -65 -140 -65 -52 0
-55 1 -55 24 0 38 -18 41 -49 7 -30 -32 -52 -36 -152 -25 -42 5 -46 7 -41 30
4 20 0 24 -21 24 -14 0 -38 -5 -52 -12 -19 -9 -28 -9 -37 0 -7 7 -24 12 -39
12 -15 0 -34 6 -41 13 -7 7 -26 18 -42 25 -23 10 -27 15 -16 22 11 7 8 12 -15
21 -17 7 -36 11 -43 10 -16 -3 -119 75 -132 99 -8 14 -5 16 18 13 l27 -4 -32
28 c-18 15 -45 38 -60 49 -31 24 -82 130 -58 120 19 -7 9 22 -18 51 -15 17
-20 40 -23 98 -3 57 -1 75 7 69 9 -5 10 5 4 42 -10 67 -7 132 10 163 l13 26
13 -30 c12 -29 13 -26 23 60 9 71 17 99 40 135 28 43 30 44 39 22 10 -22 10
-22 29 8 10 17 18 39 18 50 0 35 20 65 63 92 44 28 59 23 49 -16 -5 -21 -5
-21 16 -2 12 11 22 23 22 27 0 5 12 26 27 47 21 29 40 42 83 55 68 22 66 22
73 -5 6 -21 7 -21 27 -3 11 10 20 24 20 31 0 8 19 15 48 19 26 4 52 8 57 10
29 10 53 3 58 -16z m3507 -2 c42 -13 43 -15 20 -22 l-25 -8 24 -9 c13 -4 32
-6 43 -2 25 7 54 -11 150 -95 46 -40 53 -51 40 -57 -13 -5 -7 -10 23 -19 39
-11 41 -13 78 -115 30 -81 35 -105 25 -112 -10 -7 -10 -11 3 -21 32 -25 39
-56 39 -172 0 -94 -3 -120 -16 -133 -14 -13 -14 -17 -2 -26 20 -16 6 -86 -21
-104 -11 -8 -21 -18 -21 -22 0 -5 -10 -30 -21 -57 -18 -41 -22 -45 -29 -28 -8
19 -9 19 -9 -2 -1 -13 -5 -23 -11 -23 -5 0 -14 -17 -19 -37 -11 -38 -86 -121
-143 -158 -27 -17 -28 -17 -36 4 -7 20 -9 20 -30 5 -12 -8 -22 -21 -22 -27 0
-16 -102 -57 -141 -57 -25 0 -30 3 -25 16 5 12 2 15 -11 10 -9 -4 -20 -1 -24
6 -5 8 -11 4 -18 -15 -9 -22 -17 -27 -43 -27 -53 0 -79 11 -89 37 -7 18 -4 29
13 48 38 43 113 85 179 99 80 17 222 93 270 143 36 37 54 68 101 168 30 65 33
211 5 295 -32 96 -84 194 -125 235 -81 80 -77 78 -217 128 -33 11 -63 26 -67
31 -9 13 -11 108 -3 128 7 18 89 15 155 -5z m-2195 -214 c44 -87 107 -205 142
-262 89 -148 97 -212 31 -244 -35 -17 -41 -17 -91 -3 -63 18 -77 32 -113 111
-15 33 -30 62 -33 65 -7 6 -72 149 -91 200 -28 76 -92 192 -126 229 l-35 39
58 7 c32 3 65 8 73 9 8 2 36 4 61 5 l46 1 78 -157z m730 81 c28 -13 88 -46
135 -73 47 -27 110 -63 140 -81 30 -17 65 -38 77 -48 l23 -17 -22 -65 c-29
-88 -36 -340 -11 -422 8 -29 17 -80 18 -113 2 -33 16 -98 32 -145 l28 -86 -60
3 c-33 1 -135 5 -227 9 l-167 6 25 27 c39 40 101 150 119 211 26 85 31 287 10
400 -9 52 -25 115 -35 141 -30 75 -102 198 -145 247 -35 40 -37 44 -15 37 14
-4 48 -18 75 -31z m1483 -199 c29 -26 61 -63 70 -81 8 -19 19 -34 23 -34 17 0
39 -88 45 -178 5 -86 3 -106 -19 -175 -29 -91 -59 -133 -130 -185 -76 -55
-118 -78 -160 -86 -45 -8 -48 3 -7 27 16 10 38 31 50 47 11 16 44 53 73 82 29
30 67 85 86 123 29 59 35 84 39 156 4 88 -14 180 -42 204 -6 6 -19 26 -29 45
-17 35 -134 120 -164 120 -7 0 -13 7 -13 15 0 26 117 -27 178 -80z m-1952 16
c167 -74 244 -292 174 -495 -32 -93 -98 -151 -215 -187 -63 -19 -77 -20 -155
-10 -127 16 -154 27 -216 83 -72 67 -100 111 -113 183 -16 87 -14 120 15 206
30 92 49 114 63 76 5 -14 14 -28 19 -31 5 -3 24 -40 42 -83 37 -84 72 -132
130 -175 31 -23 49 -28 101 -30 104 -2 159 38 159 119 0 59 -25 119 -103 247
-37 60 -67 114 -67 119 0 15 116 0 166 -22z m1474 9 c0 -12 -7 -20 -16 -20 -9
0 -44 -28 -78 -62 -44 -45 -67 -77 -79 -112 -21 -62 -22 -194 -3 -241 l15 -35
-34 0 c-46 0 -62 20 -70 85 -15 120 23 237 107 324 65 68 158 104 158 61z
m195 -225 c28 -28 32 -66 9 -89 -22 -22 -44 -20 -44 5 0 15 -5 20 -22 17 -25
-3 -28 -22 -15 -89 l7 -36 -57 -7 c-32 -4 -74 -9 -94 -12 l-37 -6 -11 51 c-17
80 -14 109 14 135 44 41 86 56 158 56 59 0 71 -3 92 -25z m-586 -2 c19 -16 22
-30 25 -123 2 -58 7 -115 11 -127 6 -20 2 -22 -57 -30 l-63 -8 -18 39 c-21 47
-18 51 30 55 13 1 10 8 -15 34 -29 30 -32 37 -26 79 7 53 10 58 44 81 31 21
43 21 69 0z m682 -323 l33 -99 -24 -26 c-13 -14 -29 -25 -36 -25 -7 0 -14 -6
-17 -12 -8 -24 -18 0 -32 77 -7 42 -18 82 -24 88 -16 16 -14 -16 4 -103 17
-79 14 -90 -18 -90 -12 0 -74 -11 -138 -23 l-116 -23 24 34 c28 42 29 85 4
132 -38 72 -110 96 -204 68 -41 -12 -92 -68 -103 -115 -10 -37 26 -110 63
-130 l33 -18 -98 -22 c-110 -26 -165 -29 -180 -10 -5 6 -22 52 -38 101 -19 63
-24 93 -17 105 15 25 127 78 180 85 27 4 80 13 118 21 39 8 102 19 140 24 39
6 129 22 200 35 72 13 149 24 172 25 l42 1 32 -100z m-393 -75 c39 -46 27 -98
-33 -135 -28 -17 -43 -20 -77 -15 -50 9 -88 44 -88 82 0 41 34 91 67 99 15 3
33 7 38 8 22 6 71 -15 93 -39z"/>
<path d="M4841 7456 c-9 -11 7 -32 80 -104 l92 -91 61 55 c54 47 86 65 184 99
17 6 15 34 -3 42 -25 9 -125 -34 -183 -80 l-54 -41 -24 27 c-13 15 -26 27 -30
27 -4 0 -26 18 -50 40 -48 44 -56 47 -73 26z"/>
<path d="M4302 6398 c-7 -7 -12 -23 -12 -36 0 -49 -49 -105 -127 -146 -37 -18
-46 -56 -14 -56 30 0 124 68 155 112 44 61 41 169 -2 126z"/>
<path d="M3813 6025 c-58 -35 -97 -116 -91 -184 10 -101 87 -168 197 -173 62
-3 119 33 162 100 27 41 30 53 24 96 -15 117 -72 172 -188 182 -54 5 -67 2
-104 -21z"/>
<path d="M5627 5976 c-104 -71 -116 -219 -25 -303 28 -26 125 -48 172 -39 43
8 115 58 132 91 38 73 -2 211 -74 260 -29 20 -49 25 -97 25 -51 -1 -67 -6
-108 -34z"/>
<path d="M4406 5096 c-37 -31 -30 -63 21 -99 95 -65 537 -109 737 -73 92 16
151 42 151 67 0 18 -31 17 -105 -4 -143 -39 -302 -38 -585 3 -98 14 -151 29
-170 50 -14 15 -14 18 0 30 21 17 19 50 -2 50 -10 -1 -31 -11 -47 -24z"/>
<path d="M3200 1482 c-103 -29 -188 -72 -259 -130 -36 -30 -66 -57 -66 -61 0
-3 -12 -29 -27 -57 -40 -78 -47 -133 -38 -274 4 -69 12 -137 18 -151 6 -14 10
-32 10 -40 -2 -33 3 -49 15 -49 8 0 19 -12 26 -27 8 -16 16 -34 20 -42 4 -8
16 -19 26 -25 10 -6 28 -19 39 -28 11 -10 28 -20 37 -23 11 -4 16 -12 12 -21
-3 -7 -1 -15 3 -15 5 -1 18 -3 29 -4 11 -1 35 -10 54 -19 86 -45 241 -65 341
-45 68 13 263 110 308 153 36 34 92 129 92 156 0 9 9 42 19 73 15 43 18 73 15
134 -6 85 -27 181 -52 228 -9 17 -15 37 -14 45 1 8 -26 38 -60 65 -33 28 -74
62 -89 78 -15 15 -34 27 -42 27 -8 0 -41 14 -73 30 -52 28 -69 31 -168 36 -88
3 -125 0 -176 -14z m262 -94 c93 -28 184 -91 230 -158 55 -81 88 -179 88 -264
0 -109 -42 -215 -121 -307 -88 -102 -222 -148 -375 -129 -117 15 -195 46 -291
118 -37 28 -90 115 -115 189 -22 69 -16 188 17 292 20 63 35 89 73 128 83 88
192 142 287 144 27 1 61 4 75 8 29 9 42 6 132 -21z"/>
<path d="M3251 1193 c-13 -3 -31 -11 -38 -19 -8 -8 -20 -14 -28 -14 -18 0 -84
-76 -102 -119 -9 -20 -16 -67 -17 -106 -1 -115 45 -173 169 -214 75 -25 139
-22 201 10 64 33 109 93 124 166 24 114 -11 206 -102 264 -44 28 -62 34 -117
35 -36 1 -77 0 -90 -3z m180 -73 c25 -16 55 -48 68 -71 21 -36 23 -50 18 -107
-8 -80 -38 -130 -102 -167 -38 -23 -51 -26 -87 -19 -24 4 -48 7 -54 6 -25 -5
-84 30 -113 67 -46 58 -55 90 -41 154 20 101 101 165 211 166 46 1 63 -4 100
-29z"/>
<path d="M2583 4493 c-32 -60 -90 -252 -117 -383 -18 -88 -43 -303 -52 -445
-11 -171 28 -469 63 -482 28 -11 34 12 18 78 -8 35 -20 127 -27 204 -19 235
19 567 98 837 19 67 46 143 60 169 29 58 30 79 5 79 -12 0 -28 -19 -48 -57z"/>
<path d="M2201 4392 c-18 -33 -62 -156 -71 -198 -37 -165 -61 -590 -41 -737
13 -96 45 -212 62 -223 6 -3 17 0 25 8 13 12 13 19 -1 51 -34 82 -48 213 -42
412 8 266 30 436 73 560 50 144 50 145 26 145 -12 0 -26 -8 -31 -18z"/>
</g>
</svg>
