<?xml version="1.0" standalone="no"?>
<!DOCTYPE svg PUBLIC "-//W3C//DTD SVG 1.0//EN" "http://www.w3.org/TR/2001/REC-SVG-20010904/DTD/svg10.dtd">
<svg xmlns="http://www.w3.org/2000/svg" xmlns:xlink="http://www.w3.org/1999/xlink" id="body_1" width="24" height="24">
  <defs>
    <style type="text/css">
      <![CDATA[ #myicon {
        fill: yellow;
      }
      
      ]]>

    </style>
  </defs>
<g transform="matrix(0.019215371 0 0 0.019215371 0 0)">
	<g transform="matrix(0.13329774 0 -0 -0.13329776 0 1248.9999)">
	</g>
    <path transform="matrix(0.13329774 0 -0 -0.13329776 0 1248.9999)"  d="M3093 9289C 3053 9196 3021 8951 3019 8725C 3018 8563 3029 8451 3050 8395C 3055 8381 3069 8332 3080 8287C 3101 8207 3146 8075 3161 8055C 3165 8049 3194 7989 3224 7921C 3275 7808 3278 7798 3257 7803C 3245 7806 3215 7814 3190 7820C 2914 7888 2447 8097 2208 8259C 2182 8277 2148 8292 2133 8293L2133 8293L2105 8295L2107 8195C 2109 8083 2119 8044 2204 7810C 2267 7636 2330 7523 2467 7340C 2577 7191 2716 7034 2774 6991C 2809 6965 2817 6954 2806 6948C 2759 6922 2451 6911 2290 6930C 2182 6943 2072 6968 2042 6987C 2006 7009 1987 6997 1995 6958C 2004 6917 2099 6727 2134 6680C 2180 6619 2323 6477 2375 6442C 2440 6397 2548 6340 2566 6340C 2574 6340 2598 6331 2619 6321C 2660 6299 2835 6240 2856 6240C 2878 6240 2880 6224 2865 6181C 2848 6131 2785 5869 2771 5785C 2751 5665 2730 5454 2734 5405C 2736 5378 2739 5348 2739 5339C 2740 5330 2747 5320 2755 5316C 2777 5308 2889 5408 2951 5492L2951 5492L3005 5564L3011 5440C 3015 5371 3022 5263 3028 5200C 3034 5137 3042 5002 3045 4900C 3049 4798 3054 4712 3056 4708C 3059 4704 3061 4671 3061 4635C 3062 4542 3093 4535 3119 4622C 3126 4646 3141 4675 3151 4689C 3161 4702 3170 4718 3170 4724C 3170 4749 3327 5052 3332 5038C 3335 5030 3365 4990 3398 4949C 3434 4904 3468 4848 3485 4805C 3500 4767 3516 4731 3520 4725C 3525 4720 3533 4695 3540 4671C 3546 4647 3569 4588 3591 4538C 3612 4489 3630 4443 3630 4435C 3630 4393 3673 4440 3734 4548L3734 4548L3774 4617L3831 4591L3887 4565L3869 4528C 3858 4507 3850 4486 3850 4480C 3850 4474 3834 4434 3814 4392C 3728 4209 3615 3938 3560 3780C 3548 3744 3532 3702 3525 3685C 3517 3669 3502 3621 3491 3580C 3479 3539 3448 3440 3421 3360L3421 3360L3373 3215L3316 3208C 3285 3204 3243 3196 3222 3190C 3168 3176 3081 3113 3045 3062C 3017 3022 3015 3011 3012 2918C 3010 2863 3013 2781 3020 2736C 3030 2666 3078 2473 3110 2374C 3115 2357 3120 2336 3120 2327C 3120 2318 3131 2294 3145 2274C 3159 2254 3170 2231 3170 2223C 3170 2215 3179 2197 3190 2183C 3201 2169 3210 2151 3210 2142C 3210 2134 3225 2104 3244 2076C 3262 2048 3288 2005 3301 1981C 3366 1860 3429 1835 3698 1823C 3776 1820 3840 1813 3840 1808C 3840 1804 3836 1800 3831 1800C 3826 1800 3797 1777 3766 1750L3766 1750L3711 1699L3673 1718C 3652 1728 3608 1742 3575 1749C 3542 1756 3487 1768 3453 1776C 3354 1798 3169 1786 3057 1749C 2943 1711 2837 1658 2799 1620C 2782 1604 2765 1590 2760 1590C 2731 1590 2530 1336 2530 1300C 2530 1290 2524 1275 2516 1267C 2497 1249 2463 1102 2455 1012C 2441 826 2527 567 2646 440L2646 440L2689 394L2601 377C 2443 346 2346 306 2352 272C 2370 178 2969 97 3910 60C 4252 47 5288 47 5630 60C 6573 97 7170 178 7188 273C 7192 294 7142 325 7069 346C 7013 362 7012 362 7031 381C 7041 391 7054 400 7058 400C 7074 400 7156 495 7196 560C 7314 749 7363 976 7325 1160C 7290 1332 7238 1446 7150 1539C 7133 1558 7111 1583 7102 1594C 7067 1636 6859 1760 6822 1760C 6815 1760 6807 1766 6804 1774C 6801 1782 6790 1790 6779 1793C 6767 1796 6760 1807 6760 1822C 6760 1834 6749 1869 6735 1897C 6717 1936 6702 1954 6675 1967C 6631 1988 6630 2002 6673 1996C 6759 1983 6859 1980 6882 1991C 6952 2022 6994 2164 6988 2348C 6985 2455 6982 2470 6953 2530C 6935 2566 6910 2609 6896 2625L6896 2625L6870 2655L6758 2654C 6682 2654 6631 2649 6603 2638L6603 2638L6561 2623L6580 2660C 6602 2702 6626 2710 6741 2710C 6810 2710 6860 2733 6860 2766C 6860 2774 6864 2780 6868 2780C 6873 2780 6887 2799 6900 2823C 6920 2858 6925 2881 6926 2960C 6929 3077 6914 3116 6836 3198C 6779 3258 6685 3310 6535 3365C 6465 3391 6422 3410 6385 3433C 6374 3440 6340 3459 6310 3477C 6279 3494 6235 3527 6211 3549C 6187 3571 6143 3604 6113 3622C 6083 3640 6010 3702 5952 3760C 5893 3818 5825 3884 5800 3906C 5729 3970 5701 4008 5651 4110C 5599 4216 5535 4327 5496 4379L5496 4379L5470 4414L5538 4431C 5677 4467 5789 4510 5913 4575C 5984 4612 6043 4640 6044 4638C 6047 4635 6074 4438 6089 4316C 6105 4186 6130 4196 6218 4370C 6244 4422 6294 4518 6328 4584C 6362 4649 6394 4717 6399 4734C 6406 4758 6408 4741 6409 4663C 6410 4603 6414 4558 6421 4555C 6427 4551 6429 4542 6426 4535C 6420 4519 6445 4496 6458 4504C 6482 4519 6544 4680 6606 4885C 6644 5013 6644 5014 6680 4995C 6719 4975 6848 4946 7012 4921C 7267 4882 7323 4898 7194 4973C 7106 5025 7067 5061 6997 5155L6997 5155L6937 5235L7046 5243C 7294 5260 7586 5343 7698 5427C 7756 5471 7746 5480 7516 5591C 7329 5681 7173 5771 7155 5800C 7151 5806 7170 5810 7207 5810C 7262 5810 7325 5821 7470 5857C 7506 5866 7584 5898 7643 5928C 7740 5976 7751 5984 7746 6003C 7743 6015 7740 6028 7740 6033C 7740 6037 7734 6040 7727 6040C 7719 6040 7673 6064 7624 6093C 7575 6123 7514 6157 7487 6170C 7461 6183 7432 6202 7423 6212C 7414 6222 7403 6230 7398 6230C 7386 6230 7268 6312 7209 6361C 7183 6383 7158 6400 7153 6400C 7136 6400 7013 6523 6962 6592C 6924 6642 6909 6674 6900 6717C 6858 6930 6759 7200 6679 7318C 6663 7342 6650 7364 6650 7367C 6650 7378 6556 7504 6497 7573C 6465 7610 6409 7664 6373 7693L6373 7693L6307 7744L6466 7767C 6553 7780 6639 7792 6657 7795C 6698 7801 6787 7835 6826 7859C 6898 7903 6981 8062 6979 8150C 6979 8179 6952 8246 6930 8275C 6901 8313 6755 8426 6700 8453C 6592 8505 6481 8512 6401 8470C 6365 8451 6284 8372 6263 8334C 6221 8257 6200 8211 6194 8183L6194 8183L6188 8150L6221 8167C 6240 8176 6269 8193 6285 8204C 6333 8239 6431 8264 6492 8257C 6537 8252 6550 8245 6578 8213C 6595 8192 6619 8156 6631 8133C 6651 8092 6651 8090 6634 8055C 6600 7982 6472 7908 6317 7871C 6212 7846 6176 7851 6113 7901C 6087 7922 6054 7948 6040 7958C 6000 7988 5903 8035 5790 8080C 5732 8102 5669 8128 5650 8137C 5472 8217 5131 8253 4810 8226L4810 8226L4715 8218L4680 8260C 4642 8306 4436 8500 4356 8565C 4329 8587 4279 8628 4246 8656C 4169 8720 4000 8843 3918 8894C 3883 8916 3826 8952 3790 8975C 3581 9110 3204 9314 3139 9327C 3115 9332 3110 9328 3093 9289zM3267 9217C 3375 9164 3652 9007 3745 8945C 3773 8927 3840 8884 3895 8850C 3996 8786 4105 8707 4215 8617C 4248 8590 4295 8551 4320 8531C 4439 8435 4641 8240 4680 8183C 4694 8163 4699 8162 4780 8171C 5002 8196 5226 8192 5375 8160C 5403 8154 5448 8145 5476 8141C 5530 8132 5821 8019 5924 7968C 5987 7937 6109 7849 6149 7806C 6174 7779 6199 7773 6216 7789C 6221 7794 6268 7808 6320 7821C 6534 7873 6675 7970 6695 8080C 6702 8117 6693 8140 6651 8199L6651 8199L6627 8232L6671 8225C 6695 8221 6730 8212 6748 8204C 6765 8197 6780 8193 6780 8195C 6780 8196 6755 8214 6725 8235C 6670 8271 6595 8297 6510 8309C 6465 8316 6356 8298 6335 8280C 6329 8275 6312 8266 6297 8261L6297 8261L6269 8250L6296 8299C 6310 8327 6335 8362 6350 8377C 6409 8437 6508 8466 6572 8441C 6585 8436 6613 8427 6635 8420C 6700 8399 6773 8346 6866 8253C 6903 8216 6927 8136 6914 8092C 6910 8077 6906 8057 6905 8047C 6904 8037 6886 8005 6865 7975C 6836 7932 6815 7915 6767 7892C 6667 7845 6546 7819 6336 7801C 6276 7796 6223 7787 6217 7781C 6204 7768 6219 7754 6341 7654C 6382 7621 6436 7569 6462 7539C 6522 7468 6610 7349 6610 7339C 6610 7335 6623 7312 6639 7288C 6654 7264 6694 7184 6728 7110C 6787 6976 6824 6855 6855 6690C 6873 6589 6882 6576 6979 6484C 7151 6322 7356 6172 7570 6052C 7595 6038 7625 6018 7638 6009L7638 6009L7661 5991L7593 5957C 7468 5894 7293 5857 7145 5862C 7021 5866 7014 5855 7097 5783C 7186 5706 7278 5651 7477 5555C 7577 5507 7657 5463 7654 5458C 7646 5445 7560 5403 7494 5381C 7462 5370 7374 5347 7300 5330C 7189 5304 7139 5298 7020 5296C 6896 5293 6875 5290 6872 5276C 6864 5239 7002 5053 7083 4988C 7121 4958 7127 4950 7109 4954C 7096 4957 7038 4966 6980 4975C 6854 4994 6732 5024 6691 5044L6691 5044L6662 5060L6687 5127C 6729 5239 6778 5405 6821 5577C 6852 5704 6859 5744 6850 5760C 6827 5804 6819 5788 6780 5615C 6769 5566 6753 5503 6745 5475C 6684 5267 6665 5209 6621 5085C 6594 5008 6555 4890 6535 4823C 6515 4755 6490 4681 6480 4658L6480 4658L6460 4615L6460 4763C 6460 4845 6456 4941 6450 4978C 6445 5015 6436 5131 6430 5235C 6419 5455 6408 5565 6373 5820C 6359 5922 6348 6016 6348 6030C 6348 6044 6343 6063 6338 6073C 6333 6083 6322 6123 6314 6163C 6282 6312 6270 6366 6261 6397C 6251 6430 6267 6481 6291 6495C 6296 6499 6317 6527 6337 6558C 6363 6598 6374 6627 6374 6655C 6375 6702 6360 6714 6344 6679C 6300 6584 6281 6552 6255 6527C 6212 6487 6114 6439 6080 6442C 6065 6443 6045 6438 6037 6431C 6025 6422 6026 6428 6041 6456C 6070 6514 6063 6620 6023 6702C 5994 6762 5993 6769 5997 6866C 6001 6950 5999 6968 5985 6980C 5959 7002 5951 6981 5939 6865C 5927 6738 5907 6687 5833 6596C 5793 6547 5695 6472 5669 6470C 5665 6470 5664 6500 5666 6537C 5674 6669 5625 6839 5539 6980C 5470 7093 5430 7139 5395 7149C 5322 7169 5235 7121 5186 7034C 5159 6985 5154 6965 5169 6956C 5187 6945 5207 6961 5228 7005C 5261 7074 5327 7112 5372 7089C 5386 7081 5384 7076 5353 7045C 5330 7022 5320 7003 5322 6988C 5326 6960 5358 6952 5367 6977C 5375 7002 5411 7040 5425 7040C 5432 7040 5445 7031 5454 7021C 5471 7003 5471 7000 5455 6976C 5436 6948 5441 6920 5464 6920C 5472 6920 5483 6927 5488 6936C 5495 6949 5502 6944 5523 6907C 5588 6797 5626 6651 5616 6551C 5603 6414 5600 6425 5647 6422C 5679 6420 5702 6426 5747 6451C 5779 6469 5813 6490 5824 6499C 5849 6521 5925 6621 5945 6659C 5953 6676 5963 6690 5965 6690C 5981 6690 6000 6622 6000 6563C 6000 6503 5996 6488 5965 6437C 5926 6372 5925 6367 5943 6352C 5952 6344 5983 6348 6055 6366C 6110 6380 6159 6396 6164 6401C 6183 6419 6189 6409 6210 6338C 6222 6298 6235 6256 6240 6245C 6248 6226 6298 5973 6319 5840C 6335 5742 6360 5453 6367 5290C 6373 5132 6373 5131 6298 4994C 6258 4922 6116 4750 6096 4750C 6090 4750 6061 4730 6029 4705C 5980 4666 5888 4620 5860 4620C 5854 4620 5850 4629 5850 4640C 5850 4651 5846 4668 5840 4678C 5835 4687 5819 4743 5805 4801C 5779 4908 5692 5140 5666 5169C 5659 5178 5641 5208 5626 5235C 5612 5263 5590 5297 5578 5312C 5546 5349 5442 5410 5409 5410C 5394 5410 5380 5414 5378 5419C 5377 5424 5305 5436 5220 5445C 5090 5460 5010 5462 4720 5457C 4530 5454 4364 5449 4350 5446C 4109 5394 4103 5391 4024 5268C 3949 5154 3896 5025 3856 4864C 3836 4782 3820 4707 3820 4698C 3820 4664 3800 4671 3703 4733C 3638 4776 3583 4822 3541 4869C 3471 4948 3391 5050 3390 5063C 3390 5067 3376 5089 3360 5112C 3343 5135 3318 5190 3304 5234C 3280 5312 3243 5555 3239 5670C 3233 5806 3264 5950 3328 6090C 3339 6115 3360 6165 3373 6200C 3414 6310 3444 6370 3459 6370C 3466 6370 3506 6352 3547 6329C 3641 6277 3651 6282 3635 6377C 3622 6454 3630 6516 3663 6599C 3688 6662 3702 6671 3718 6636C 3735 6599 3798 6533 3849 6497C 3874 6480 3904 6458 3915 6448C 3940 6424 3978 6414 3991 6427C 3998 6434 3998 6458 3990 6498C 3980 6549 3980 6571 3994 6630C 4003 6670 4019 6723 4031 6748L4031 6748L4053 6795L4061 6758C 4084 6657 4165 6547 4254 6495C 4370 6427 4641 6374 4656 6415C 4660 6426 4654 6437 4639 6448C 4580 6488 4553 6526 4530 6600C 4509 6667 4508 6682 4517 6760C 4527 6848 4563 6941 4599 6974C 4615 6989 4619 6988 4650 6960C 4675 6937 4686 6933 4697 6941C 4716 6958 4714 6966 4675 7003C 4649 7029 4643 7039 4652 7048C 4659 7055 4669 7060 4675 7060C 4693 7060 4726 7019 4744 6978C 4760 6937 4771 6932 4789 6954C 4803 6971 4781 7032 4748 7067C 4729 7087 4729 7090 4744 7096C 4797 7116 4898 7062 4940 6990C 4967 6944 4996 6927 5005 6952C 5012 6969 4969 7048 4938 7077C 4900 7112 4831 7143 4781 7148C 4692 7156 4580 7069 4515 6941C 4473 6856 4457 6778 4462 6680C 4467 6602 4472 6583 4503 6526L4503 6526L4539 6460L4501 6465C 4454 6471 4336 6507 4295 6527C 4148 6602 4066 6798 4114 6962C 4135 7035 4134 7050 4111 7050C 4096 7050 4087 7035 4071 6988C 4059 6954 4050 6915 4050 6901C 4050 6887 4036 6855 4020 6831C 3977 6768 3940 6643 3940 6564L3940 6564L3940 6499L3912 6514C 3864 6539 3780 6621 3758 6664C 3743 6692 3736 6731 3732 6792C 3729 6846 3722 6884 3714 6891C 3692 6909 3678 6865 3681 6791C 3684 6731 3682 6721 3657 6688C 3610 6627 3586 6546 3586 6448C 3585 6370 3583 6363 3569 6376C 3561 6384 3549 6390 3543 6390C 3529 6390 3433 6477 3420 6500C 3415 6509 3406 6559 3399 6611C 3393 6663 3384 6709 3380 6713C 3377 6717 3368 6690 3361 6653C 3351 6601 3351 6575 3360 6540C 3366 6515 3373 6487 3374 6477C 3375 6468 3382 6454 3388 6448C 3404 6432 3403 6408 3386 6368C 3378 6350 3355 6288 3334 6230C 3293 6116 3220 5949 3159 5828C 3112 5736 3110 5712 3153 5763L3153 5763L3185 5800L3182 5690C 3180 5628 3184 5548 3191 5507C 3198 5468 3203 5429 3201 5422C 3197 5401 3239 5250 3271 5171C 3291 5119 3297 5094 3290 5085C 3284 5078 3257 5028 3230 4974C 3202 4919 3163 4842 3142 4801L3142 4801L3103 4727L3097 4790C 3093 4825 3090 4910 3090 4979C 3090 5048 3085 5146 3080 5195C 3075 5245 3067 5379 3064 5493L3064 5493L3057 5701L3028 5673C 3012 5658 2978 5617 2953 5583C 2928 5548 2901 5520 2893 5520C 2886 5520 2880 5517 2880 5513C 2880 5508 2861 5486 2839 5462C 2811 5433 2794 5422 2787 5429C 2782 5434 2781 5447 2785 5457C 2789 5467 2794 5511 2796 5555C 2801 5632 2827 5786 2855 5900C 2907 6110 2934 6206 2961 6280C 2998 6384 3001 6403 2977 6408C 2951 6413 2934 6395 2919 6344L2919 6344L2905 6299L2855 6306C 2828 6309 2794 6318 2780 6325C 2766 6332 2711 6352 2656 6370C 2466 6433 2365 6505 2215 6684C 2163 6746 2082 6895 2093 6906C 2095 6909 2139 6903 2191 6893C 2322 6869 2706 6869 2798 6893C 2833 6903 2870 6910 2881 6910C 2916 6910 2901 6944 2838 7002C 2803 7034 2772 7060 2769 7060C 2758 7060 2590 7257 2509 7365C 2411 7495 2326 7632 2293 7712C 2225 7878 2161 8088 2155 8158C 2152 8197 2154 8230 2159 8230C 2163 8230 2179 8221 2193 8210C 2252 8164 2474 8044 2640 7971C 2863 7871 3038 7807 3203 7766C 3331 7734 3332 7734 3353 7694C 3375 7656 3420 7633 3420 7661C 3420 7672 3363 7768 3350 7780C 3338 7790 3292 7877 3272 7925C 3261 7953 3236 8013 3217 8060C 3161 8196 3114 8347 3090 8465C 3069 8565 3068 8591 3074 8770C 3077 8877 3088 9027 3099 9102C 3115 9228 3129 9270 3151 9270C 3155 9270 3208 9246 3267 9217zM5180 5233C 5266 5213 5353 5145 5415 5052C 5483 4949 5626 4541 5602 4519C 5590 4508 5499 4481 5380 4454C 5273 4429 5245 4427 4960 4423C 4664 4418 4509 4426 4400 4452C 4375 4457 4291 4483 4213 4508C 4046 4562 4056 4545 4090 4718C 4110 4820 4146 4926 4201 5048C 4217 5083 4230 5115 4230 5120C 4230 5130 4292 5189 4315 5203C 4328 5210 4541 5236 4650 5244C 4725 5249 5149 5240 5180 5233zM6389 4934C 6396 4863 6395 4849 6374 4791C 6360 4756 6337 4704 6321 4676C 6305 4648 6272 4586 6247 4539C 6222 4492 6197 4444 6192 4434C 6187 4424 6171 4394 6159 4367L6159 4367L6135 4320L6128 4402C 6124 4448 6117 4529 6113 4582L6113 4582L6105 4680L6192 4767C 6240 4816 6280 4859 6280 4864C 6280 4868 6295 4893 6313 4919C 6331 4944 6352 4978 6358 4994C 6365 5010 6373 5021 6375 5018C 6378 5016 6384 4978 6389 4934zM4060 4496C 4126 4471 4193 4449 4208 4447C 4223 4444 4280 4431 4335 4417C 4497 4377 4632 4367 4965 4373C 5196 4376 5282 4381 5339 4394C 5380 4403 5417 4407 5421 4403C 5444 4379 5567 4172 5605 4092C 5658 3982 5709 3917 5811 3828C 5852 3792 5913 3734 5946 3699C 6036 3606 6420 3330 6460 3330C 6486 3330 6572 3299 6600 3280C 6614 3270 6654 3251 6689 3236C 6756 3209 6842 3133 6860 3085C 6866 3070 6871 3017 6873 2967C 6875 2881 6873 2872 6846 2827C 6819 2781 6789 2760 6753 2760C 6742 2760 6746 2769 6766 2793C 6805 2839 6822 2885 6814 2925C 6804 2982 6785 2975 6766 2908C 6752 2859 6740 2839 6702 2804C 6640 2746 6600 2736 6633 2785C 6653 2816 6670 2882 6670 2934C 6670 2973 6664 2986 6635 3019C 6586 3073 6555 3084 6468 3075C 6399 3069 6393 3066 6365 3031L6365 3031L6335 2994L6303 3059C 6285 3095 6270 3131 6270 3139C 6270 3154 6244 3187 6179 3258C 6142 3298 6013 3384 5964 3402C 5945 3408 5930 3418 5930 3422C 5930 3426 5913 3433 5891 3436C 5870 3439 5847 3445 5841 3449C 5834 3454 5815 3504 5799 3561C 5767 3672 5749 3703 5728 3682C 5718 3672 5722 3648 5746 3566L5746 3566L5776 3463L5740 3471C 5721 3476 5687 3480 5665 3480C 5642 3480 5607 3489 5585 3500C 5563 3511 5540 3520 5534 3520C 5509 3520 5135 3711 5106 3739C 5089 3755 5026 3818 4965 3880C 4861 3987 4700 4110 4665 4110C 4657 4110 4650 4101 4650 4091C 4650 4077 4677 4053 4734 4015C 4788 3979 4868 3909 4960 3816L4960 3816L5102 3671L5259 3593C 5345 3550 5438 3505 5465 3493C 5493 3481 5509 3471 5503 3470C 5496 3470 5490 3461 5490 3450C 5490 3431 5497 3430 5598 3430C 5706 3429 5850 3404 5873 3381C 5879 3375 5891 3370 5900 3370C 5923 3370 6040 3311 6040 3299C 6040 3294 6046 3290 6053 3290C 6073 3289 6140 3234 6171 3191C 6229 3113 6280 3002 6280 2956C 6280 2884 6269 2852 6231 2812C 6211 2791 6200 2781 6206 2789C 6212 2798 6216 2828 6214 2855C 6206 2979 6196 3008 6167 2997C 6156 2993 6154 2976 6157 2918C 6161 2856 6158 2838 6138 2800C 6111 2747 6044 2704 6005 2714C 5982 2720 5982 2722 5994 2753C 6049 2885 5997 3016 5866 3076C 5776 3117 5718 3113 5653 3062C 5582 3005 5512 2993 5260 2991C 5043 2989 4984 2995 4770 3041C 4658 3065 4614 3080 4510 3131C 4369 3199 4311 3234 4225 3300C 4192 3326 4140 3363 4110 3383C 4080 3403 4039 3435 4021 3454C 3982 3494 3950 3501 3950 3470C 3950 3446 3993 3406 4100 3330C 4142 3300 4210 3251 4251 3222C 4292 3192 4393 3135 4475 3094C 4610 3028 4640 3018 4770 2991C 4980 2947 5059 2938 5210 2943C 5284 2946 5356 2948 5370 2947C 5434 2944 5529 2950 5552 2959L5552 2959L5578 2969L5579 2888C 5581 2789 5597 2750 5651 2711C 5701 2674 5755 2658 5828 2657C 5875 2656 5886 2651 5918 2620C 5938 2601 5971 2562 5990 2535C 6026 2485 6065 2456 6129 2434C 6162 2423 6167 2416 6186 2353C 6198 2316 6210 2268 6213 2248C 6219 2205 6221 2206 6115 2190C 6077 2184 6018 2173 5985 2166L5985 2166L5925 2153L5906 2192C 5896 2213 5882 2230 5875 2230C 5868 2230 5850 2246 5836 2265C 5821 2284 5769 2339 5719 2388L5719 2388L5628 2476L5654 2515C 5686 2562 5689 2600 5660 2600C 5649 2600 5640 2597 5640 2593C 5640 2588 5630 2568 5617 2547L5617 2547L5594 2509L5512 2568C 5387 2659 5295 2692 5295 2646C 5295 2634 5307 2624 5332 2616C 5379 2599 5452 2556 5493 2521C 5511 2506 5533 2489 5542 2484C 5588 2459 5824 2212 5881 2130C 5894 2111 5927 2071 5955 2042C 5982 2013 6018 1970 6033 1947C 6059 1909 6060 1905 6043 1902C 5976 1890 5950 1878 5950 1860C 5950 1833 5962 1829 6001 1841C 6020 1847 6064 1853 6100 1855C 6136 1858 6178 1862 6193 1866C 6213 1871 6226 1867 6240 1855C 6282 1817 6252 1780 6179 1780C 6134 1780 6130 1778 6130 1756C 6130 1743 6127 1725 6124 1716C 6120 1705 6124 1700 6138 1700C 6150 1700 6162 1704 6165 1710C 6168 1715 6190 1724 6213 1731C 6270 1746 6310 1785 6310 1826C 6310 1844 6306 1862 6300 1865C 6278 1879 6290 1900 6321 1900C 6384 1900 6400 1837 6348 1796C 6318 1773 6316 1769 6331 1754C 6361 1725 6419 1774 6429 1838C 6435 1871 6439 1875 6469 1878C 6510 1882 6540 1857 6540 1820C 6540 1783 6507 1757 6452 1750C 6413 1746 6404 1741 6402 1722C 6399 1706 6404 1700 6419 1700C 6448 1700 6452 1686 6435 1643C 6422 1610 6404 1595 6315 1541C 6234 1493 6201 1466 6168 1423C 6113 1351 6044 1308 5975 1302C 5906 1296 5824 1315 5784 1345C 5766 1359 5749 1370 5746 1370C 5743 1370 5717 1385 5688 1404C 5659 1422 5607 1452 5572 1469C 5537 1487 5479 1520 5442 1544C 5405 1567 5341 1598 5300 1613C 5259 1627 5192 1650 5151 1665C 5066 1694 5004 1727 4837 1829C 4772 1869 4673 1922 4617 1947C 4561 1971 4504 2000 4490 2009C 4474 2020 4427 2031 4361 2039C 4248 2053 4038 2103 3912 2148C 3788 2192 3645 2276 3575 2347C 3481 2442 3403 2612 3379 2775C 3365 2870 3380 3023 3416 3146C 3429 3192 3440 3237 3440 3246C 3440 3262 3528 3537 3538 3555C 3546 3567 3584 3676 3649 3870C 3704 4031 3751 4153 3809 4280C 3910 4499 3929 4540 3934 4540C 3936 4540 3993 4520 4060 4496zM3354 3109C 3328 3009 3317 2854 3330 2766C 3348 2640 3428 2442 3482 2388C 3492 2378 3500 2365 3500 2359C 3500 2338 3610 2243 3671 2210C 3703 2193 3730 2176 3730 2174C 3730 2166 3673 2179 3623 2197C 3582 2212 3550 2210 3550 2191C 3550 2161 3689 2118 3867 2095C 3923 2088 3973 2079 3978 2076C 4001 2062 4266 2000 4346 1991C 4421 1982 4454 1972 4526 1936C 4575 1912 4632 1887 4653 1880C 4674 1874 4689 1866 4687 1864C 4678 1855 3904 1859 3735 1870C 3514 1883 3442 1895 3411 1923C 3377 1955 3290 2090 3290 2111C 3290 2121 3284 2133 3276 2137C 3230 2164 3097 2547 3070 2730C 3064 2771 3059 2848 3059 2900C 3059 2987 3062 2998 3087 3034C 3140 3108 3236 3158 3331 3159L3331 3159L3367 3160L3354 3109zM5864 3022C 5933 2985 5965 2933 5965 2860C 5964 2824 5958 2794 5947 2777C 5922 2739 5926 2715 5961 2686C 6001 2652 6047 2652 6096 2685C 6116 2699 6144 2710 6157 2710C 6220 2710 6293 2775 6339 2874C 6384 2967 6412 2998 6467 3011C 6534 3026 6577 3022 6606 2996C 6630 2976 6634 2966 6631 2924C 6630 2894 6619 2857 6604 2830C 6590 2805 6565 2751 6548 2710C 6531 2669 6511 2628 6504 2620C 6497 2612 6468 2579 6441 2548C 6369 2466 6347 2412 6346 2315C 6346 2271 6351 2216 6358 2192C 6375 2137 6428 2084 6506 2048C 6548 2029 6571 2011 6575 1997C 6592 1936 6601 1923 6623 1927C 6655 1933 6680 1910 6700 1857L6700 1857L6718 1810L6689 1810C 6665 1810 6661 1814 6663 1832C 6666 1868 6634 1866 6612 1830L6612 1830L6593 1799L6587 1838C 6583 1859 6570 1885 6558 1897C 6533 1919 6457 1933 6425 1920C 6412 1915 6397 1919 6381 1931C 6353 1953 6300 1956 6262 1936C 6247 1929 6217 1920 6195 1917C 6173 1914 6147 1909 6138 1905C 6125 1900 6111 1914 6077 1967C 6053 2004 6013 2051 5989 2070L5989 2070L5946 2104L6020 2122C 6061 2131 6134 2144 6182 2151C 6230 2158 6271 2169 6274 2175C 6278 2187 6271 2224 6239 2343C 6224 2399 6224 2410 6236 2410C 6244 2410 6250 2419 6250 2430C 6250 2445 6236 2453 6183 2469C 6093 2496 6058 2519 6020 2577C 5981 2634 5913 2700 5891 2700C 5775 2703 5694 2727 5656 2769C 5647 2779 5634 2812 5628 2843C 5613 2914 5629 2972 5676 3017C 5729 3067 5778 3068 5864 3022zM6835 2605C 6860 2600 6895 2549 6922 2479C 6947 2414 6951 2266 6931 2176C 6920 2124 6916 2119 6906 2136C 6900 2146 6895 2171 6895 2190C 6895 2248 6878 2239 6862 2173C 6845 2101 6824 2088 6785 2127C 6749 2163 6737 2220 6742 2335C 6746 2435 6768 2509 6797 2518C 6811 2522 6844 2461 6855 2412C 6859 2393 6867 2381 6873 2383C 6889 2389 6883 2437 6861 2482C 6848 2508 6846 2522 6854 2530C 6872 2548 6827 2584 6796 2576C 6761 2567 6714 2500 6701 2439C 6685 2367 6688 2232 6705 2172C 6738 2063 6850 2010 6890 2085C 6897 2099 6905 2108 6907 2106C 6913 2100 6894 2065 6874 2046C 6823 1995 6527 2065 6444 2148C 6389 2202 6375 2309 6410 2407C 6435 2479 6478 2523 6560 2563C 6655 2609 6747 2623 6835 2605zM4798 1796C 4824 1782 4865 1758 4889 1741C 4931 1713 4932 1711 4909 1706C 4840 1690 4761 1681 4630 1671C 4550 1665 4442 1655 4389 1648C 4336 1642 4278 1640 4261 1643C 4245 1647 4228 1646 4226 1641C 4223 1636 4201 1629 4177 1626C 4123 1618 4079 1591 4022 1531L4022 1531L3977 1484L3926 1538C 3898 1568 3849 1610 3817 1633L3817 1633L3759 1673L3797 1712C 3817 1733 3861 1764 3895 1780L3895 1780L3955 1810L4330 1813C 4536 1814 4715 1816 4728 1818C 4740 1819 4772 1809 4798 1796zM6581 1741C 6575 1731 6572 1709 6575 1693C 6577 1678 6587 1603 6596 1527C 6604 1452 6613 1382 6615 1372C 6617 1363 6619 1353 6619 1350C 6620 1347 6647 1338 6679 1331C 6751 1315 6784 1283 6829 1189C 6865 1112 6871 1024 6845 937C 6829 881 6746 766 6726 773C 6703 781 6709 813 6739 844C 6757 862 6779 900 6790 928C 6824 1018 6810 1124 6767 1107C 6754 1102 6752 1091 6756 1053C 6764 993 6747 929 6715 893C 6694 869 6689 867 6680 880C 6675 888 6670 902 6670 911C 6670 943 6634 963 6586 958C 6528 951 6521 968 6571 993C 6614 1014 6635 1056 6626 1102C 6611 1179 6561 1210 6453 1210C 6376 1210 6324 1190 6273 1142C 6227 1099 6222 1061 6246 940C 6251 916 6251 916 6236 934C 6214 961 6207 1028 6219 1096C 6234 1175 6288 1253 6352 1289C 6378 1303 6402 1322 6405 1332C 6408 1341 6406 1377 6400 1412C 6384 1512 6386 1527 6419 1546C 6456 1568 6490 1628 6490 1671C 6490 1699 6495 1707 6520 1719C 6537 1726 6558 1742 6568 1755C 6587 1781 6597 1771 6581 1741zM3313 1669L3319 1648L3351 1671C 3380 1691 3387 1692 3427 1682C 3451 1675 3488 1670 3510 1670C 3531 1670 3552 1666 3555 1660C 3558 1655 3570 1650 3581 1650C 3591 1650 3600 1646 3600 1640C 3600 1635 3596 1630 3591 1630C 3586 1630 3580 1621 3577 1609C 3573 1593 3575 1590 3588 1596C 3597 1600 3629 1605 3658 1606C 3720 1610 3761 1589 3802 1534C 3827 1500 3828 1496 3813 1485C 3798 1474 3798 1472 3818 1466C 3830 1462 3844 1461 3850 1465C 3869 1477 3902 1448 3947 1379C 3972 1340 3989 1306 3986 1303C 3983 1299 3985 1291 3992 1283C 4000 1273 4000 1271 3988 1275C 3979 1279 3970 1275 3967 1266C 3960 1248 3975 1236 3995 1244C 4015 1251 4022 1237 4036 1160C 4043 1124 4051 1085 4055 1072C 4061 1054 4059 1051 4046 1056C 4024 1065 4026 1045 4052 1010C 4070 985 4072 977 4061 954C 4055 940 4052 913 4056 895C 4062 861 4043 752 4028 735C 4024 730 4020 717 4020 705C 4019 687 4019 687 4009 703C 3994 728 3976 724 3985 698C 4005 634 3989 599 3904 514L3904 514L3862 473L3849 499C 3835 525 3835 525 3832 481C 3828 433 3817 419 3760 394C 3741 386 3723 376 3720 372C 3714 363 3632 310 3625 310C 3622 310 3625 318 3631 329C 3644 349 3637 380 3620 380C 3615 380 3604 364 3595 345C 3577 301 3532 280 3455 280C 3403 280 3400 281 3400 304C 3400 342 3382 345 3351 311C 3321 279 3299 275 3199 286C 3157 291 3153 293 3158 316C 3162 336 3158 340 3137 340C 3123 340 3099 335 3085 328C 3066 319 3057 319 3048 328C 3041 335 3024 340 3009 340C 2994 340 2975 346 2968 353C 2961 360 2942 371 2926 378C 2903 388 2899 393 2910 400C 2921 407 2918 412 2895 421C 2878 428 2859 432 2852 431C 2836 428 2733 506 2720 530C 2712 544 2715 546 2738 543L2738 543L2765 539L2733 567C 2715 582 2688 605 2673 616C 2642 640 2591 746 2615 736C 2634 729 2624 758 2597 787C 2582 804 2577 827 2574 885C 2571 942 2573 960 2581 954C 2590 949 2591 959 2585 996C 2575 1063 2578 1128 2595 1159L2595 1159L2608 1185L2621 1155C 2633 1126 2634 1129 2644 1215C 2653 1286 2661 1314 2684 1350C 2712 1393 2714 1394 2723 1372C 2733 1350 2733 1350 2752 1380C 2762 1397 2770 1419 2770 1430C 2770 1465 2790 1495 2833 1522C 2877 1550 2892 1545 2882 1506C 2877 1485 2877 1485 2898 1504C 2910 1515 2920 1527 2920 1531C 2920 1536 2932 1557 2947 1578C 2968 1607 2987 1620 3030 1633C 3098 1655 3096 1655 3103 1628C 3109 1607 3110 1607 3130 1625C 3141 1635 3150 1649 3150 1656C 3150 1664 3169 1671 3198 1675C 3224 1679 3250 1683 3255 1685C 3284 1695 3308 1688 3313 1669zM6820 1667C 6862 1654 6863 1652 6840 1645L6840 1645L6815 1637L6839 1628C 6852 1624 6871 1622 6882 1626C 6907 1633 6936 1615 7032 1531C 7078 1491 7085 1480 7072 1474C 7059 1469 7065 1464 7095 1455C 7134 1444 7136 1442 7173 1340C 7203 1259 7208 1235 7198 1228C 7188 1221 7188 1217 7201 1207C 7233 1182 7240 1151 7240 1035C 7240 941 7237 915 7224 902C 7210 889 7210 885 7222 876C 7242 860 7228 790 7201 772C 7190 764 7180 754 7180 750C 7180 745 7170 720 7159 693C 7141 652 7137 648 7130 665C 7122 684 7121 684 7121 663C 7120 650 7116 640 7110 640C 7105 640 7096 623 7091 603C 7080 565 7005 482 6948 445C 6921 428 6920 428 6912 449C 6905 469 6903 469 6882 454C 6870 446 6860 433 6860 427C 6860 411 6758 370 6719 370C 6694 370 6689 373 6694 386C 6699 398 6696 401 6683 396C 6674 392 6663 395 6659 402C 6654 410 6648 406 6641 387C 6632 365 6624 360 6598 360C 6545 360 6519 371 6509 397C 6502 415 6505 426 6522 445C 6560 488 6635 530 6701 544C 6781 561 6923 637 6971 687C 7007 724 7025 755 7072 855C 7102 920 7105 1066 7077 1150C 7045 1246 6993 1344 6952 1385C 6871 1465 6875 1463 6735 1513C 6702 1524 6672 1539 6668 1544C 6659 1557 6657 1652 6665 1672C 6672 1690 6754 1687 6820 1667zM4625 1453C 4669 1366 4732 1248 4767 1191C 4856 1043 4864 979 4798 947C 4763 930 4757 930 4707 944C 4644 962 4630 976 4594 1055C 4579 1088 4564 1117 4561 1120C 4554 1126 4489 1269 4470 1320C 4442 1396 4378 1512 4344 1549L4344 1549L4309 1588L4367 1595C 4399 1598 4432 1603 4440 1604C 4448 1606 4476 1608 4501 1609L4501 1609L4547 1610L4625 1453zM5355 1534C 5383 1521 5443 1488 5490 1461C 5537 1434 5600 1398 5630 1380C 5660 1363 5695 1342 5707 1332L5707 1332L5730 1315L5708 1250C 5679 1162 5672 910 5697 828C 5705 799 5714 748 5715 715C 5717 682 5731 617 5747 570L5747 570L5775 484L5715 487C 5682 488 5580 492 5488 496L5488 496L5321 502L5346 529C 5385 569 5447 679 5465 740C 5491 825 5496 1027 5475 1140C 5466 1192 5450 1255 5440 1281C 5410 1356 5338 1479 5295 1528C 5260 1568 5258 1572 5280 1565C 5294 1561 5328 1547 5355 1534zM6838 1335C 6867 1309 6899 1272 6908 1254C 6916 1235 6927 1220 6931 1220C 6948 1220 6970 1132 6976 1042C 6981 956 6979 936 6957 867C 6928 776 6898 734 6827 682C 6751 627 6709 604 6667 596C 6622 588 6619 599 6660 623C 6676 633 6698 654 6710 670C 6721 686 6754 723 6783 752C 6812 782 6850 837 6869 875C 6898 934 6904 959 6908 1031C 6912 1119 6894 1211 6866 1235C 6860 1241 6847 1261 6837 1280C 6820 1315 6703 1400 6673 1400C 6666 1400 6660 1407 6660 1415C 6660 1441 6777 1388 6838 1335zM4886 1351C 5053 1277 5130 1059 5060 856C 5028 763 4962 705 4845 669C 4782 650 4768 649 4690 659C 4563 675 4536 686 4474 742C 4402 809 4374 853 4361 925C 4345 1012 4347 1045 4376 1131C 4406 1223 4425 1245 4439 1207C 4444 1193 4453 1179 4458 1176C 4463 1173 4482 1136 4500 1093C 4537 1009 4572 961 4630 918C 4661 895 4679 890 4731 888C 4835 886 4890 926 4890 1007C 4890 1066 4865 1126 4787 1254C 4750 1314 4720 1368 4720 1373C 4720 1388 4836 1373 4886 1351zM6360 1360C 6360 1348 6353 1340 6344 1340C 6335 1340 6300 1312 6266 1278C 6222 1233 6199 1201 6187 1166C 6166 1104 6165 972 6184 925L6184 925L6199 890L6165 890C 6119 890 6103 910 6095 975C 6080 1095 6118 1212 6202 1299C 6267 1367 6360 1403 6360 1360zM6555 1135C 6583 1107 6587 1069 6564 1046C 6542 1024 6520 1026 6520 1051C 6520 1066 6515 1071 6498 1068C 6473 1065 6470 1046 6483 979L6483 979L6490 943L6433 936C 6401 932 6359 927 6339 924L6339 924L6302 918L6291 969C 6274 1049 6277 1078 6305 1104C 6349 1145 6391 1160 6463 1160C 6522 1160 6534 1157 6555 1135zM5969 1133C 5988 1117 5991 1103 5994 1010C 5996 952 6001 895 6005 883C 6011 863 6007 861 5948 853L5948 853L5885 845L5867 884C 5846 931 5849 935 5897 939C 5910 940 5907 947 5882 973C 5853 1003 5850 1010 5856 1052C 5863 1105 5866 1110 5900 1133C 5931 1154 5943 1154 5969 1133zM6651 810L6684 711L6660 685C 6647 671 6631 660 6624 660C 6617 660 6610 654 6607 648C 6599 624 6589 648 6575 725C 6568 767 6557 807 6551 813C 6535 829 6537 797 6555 710C 6572 631 6569 620 6537 620C 6525 620 6463 609 6399 597L6399 597L6283 574L6307 608C 6335 650 6336 693 6311 740C 6273 812 6201 836 6107 808C 6066 796 6015 740 6004 693C 5994 656 6030 583 6067 563L6067 563L6100 545L6002 523C 5892 497 5837 494 5822 513C 5817 519 5800 565 5784 614C 5765 677 5760 707 5767 719C 5782 744 5894 797 5947 804C 5974 808 6027 817 6065 825C 6104 833 6167 844 6205 849C 6244 855 6334 871 6405 884C 6477 897 6554 908 6577 909L6577 909L6619 910L6651 810zM6258 735C 6297 689 6285 637 6225 600C 6197 583 6182 580 6148 585C 6098 594 6060 629 6060 667C 6060 708 6094 758 6127 766C 6142 769 6160 773 6165 774C 6187 780 6236 759 6258 735z" stroke="none" fill="#000000" fill-rule="nonzero" />
	<g transform="matrix(0.13329774 0 -0 -0.13329776 0 1248.9999)">
	</g>
    <path transform="matrix(0.13329774 0 -0 -0.13329776 0 1248.9999)"  d="M4841 7456C 4832 7445 4848 7424 4921 7352L4921 7352L5013 7261L5074 7316C 5128 7363 5160 7381 5258 7415C 5275 7421 5273 7449 5255 7457C 5230 7466 5130 7423 5072 7377L5072 7377L5018 7336L4994 7363C 4981 7378 4968 7390 4964 7390C 4960 7390 4938 7408 4914 7430C 4866 7474 4858 7477 4841 7456z" stroke="none" fill="#000000" fill-rule="nonzero" />
	<g transform="matrix(0.13329774 0 -0 -0.13329776 0 1248.9999)">
	</g>
    <path transform="matrix(0.13329774 0 -0 -0.13329776 0 1248.9999)"  d="M4302 6398C 4295 6391 4290 6375 4290 6362C 4290 6313 4241 6257 4163 6216C 4126 6198 4117 6160 4149 6160C 4179 6160 4273 6228 4304 6272C 4348 6333 4345 6441 4302 6398z" stroke="none" fill="#000000" fill-rule="nonzero" />
	<g transform="matrix(0.13329774 0 -0 -0.13329776 0 1248.9999)">
	</g>
    <path transform="matrix(0.13329774 0 -0 -0.13329776 0 1248.9999)"  d="M3813 6025C 3755 5990 3716 5909 3722 5841C 3732 5740 3809 5673 3919 5668C 3981 5665 4038 5701 4081 5768C 4108 5809 4111 5821 4105 5864C 4090 5981 4033 6036 3917 6046C 3863 6051 3850 6048 3813 6025z" stroke="none" fill="#000000" fill-rule="nonzero" />
	<g transform="matrix(0.13329774 0 -0 -0.13329776 0 1248.9999)">
	</g>
    <path transform="matrix(0.13329774 0 -0 -0.13329776 0 1248.9999)"  d="M5627 5976C 5523 5905 5511 5757 5602 5673C 5630 5647 5727 5625 5774 5634C 5817 5642 5889 5692 5906 5725C 5944 5798 5904 5936 5832 5985C 5803 6005 5783 6010 5735 6010C 5684 6009 5668 6004 5627 5976z" stroke="none" fill="#000000" fill-rule="nonzero" />
	<g transform="matrix(0.13329774 0 -0 -0.13329776 0 1248.9999)">
	</g>
    <path transform="matrix(0.13329774 0 -0 -0.13329776 0 1248.9999)"  d="M4406 5096C 4369 5065 4376 5033 4427 4997C 4522 4932 4964 4888 5164 4924C 5256 4940 5315 4966 5315 4991C 5315 5009 5284 5008 5210 4987C 5067 4948 4908 4949 4625 4990C 4527 5004 4474 5019 4455 5040C 4441 5055 4441 5058 4455 5070C 4476 5087 4474 5120 4453 5120C 4443 5119 4422 5109 4406 5096z" stroke="none" fill="#000000" fill-rule="nonzero" />
	<g transform="matrix(0.13329774 0 -0 -0.13329776 0 1248.9999)">
	</g>
    <path transform="matrix(0.13329774 0 -0 -0.13329776 0 1248.9999)"  d="M3200 1482C 3097 1453 3012 1410 2941 1352C 2905 1322 2875 1295 2875 1291C 2875 1288 2863 1262 2848 1234C 2808 1156 2801 1101 2810 960C 2814 891 2822 823 2828 809C 2834 795 2838 777 2838 769C 2836 736 2841 720 2853 720C 2861 720 2872 708 2879 693C 2887 677 2895 659 2899 651C 2903 643 2915 632 2925 626C 2935 620 2953 607 2964 598C 2975 588 2992 578 3001 575C 3012 571 3017 563 3013 554C 3010 547 3012 539 3016 539C 3021 538 3034 536 3045 535C 3056 534 3080 525 3099 516C 3185 471 3340 451 3440 471C 3508 484 3703 581 3748 624C 3784 658 3840 753 3840 780C 3840 789 3849 822 3859 853C 3874 896 3877 926 3874 987C 3868 1072 3847 1168 3822 1215C 3813 1232 3807 1252 3808 1260C 3809 1268 3782 1298 3748 1325C 3715 1353 3674 1387 3659 1403C 3644 1418 3625 1430 3617 1430C 3609 1430 3576 1444 3544 1460C 3492 1488 3475 1491 3376 1496C 3288 1499 3251 1496 3200 1482zM3462 1388C 3555 1360 3646 1297 3692 1230C 3747 1149 3780 1051 3780 966C 3780 857 3738 751 3659 659C 3571 557 3437 511 3284 530C 3167 545 3089 576 2993 648C 2956 676 2903 763 2878 837C 2856 906 2862 1025 2895 1129C 2915 1192 2930 1218 2968 1257C 3051 1345 3160 1399 3255 1401C 3282 1402 3316 1405 3330 1409C 3359 1418 3372 1415 3462 1388z" stroke="none" fill="#000000" fill-rule="nonzero" />
	<g transform="matrix(0.13329774 0 -0 -0.13329776 0 1248.9999)">
	</g>
    <path transform="matrix(0.13329774 0 -0 -0.13329776 0 1248.9999)"  d="M3251 1193C 3238 1190 3220 1182 3213 1174C 3205 1166 3193 1160 3185 1160C 3167 1160 3101 1084 3083 1041C 3074 1021 3067 974 3066 935C 3065 820 3111 762 3235 721C 3310 696 3374 699 3436 731C 3500 764 3545 824 3560 897C 3584 1011 3549 1103 3458 1161C 3414 1189 3396 1195 3341 1196C 3305 1197 3264 1196 3251 1193zM3431 1120C 3456 1104 3486 1072 3499 1049C 3520 1013 3522 999 3517 942C 3509 862 3479 812 3415 775C 3377 752 3364 749 3328 756C 3304 760 3280 763 3274 762C 3249 757 3190 792 3161 829C 3115 887 3106 919 3120 983C 3140 1084 3221 1148 3331 1149C 3377 1150 3394 1145 3431 1120z" stroke="none" fill="#000000" fill-rule="nonzero" />
	<g transform="matrix(0.13329774 0 -0 -0.13329776 0 1248.9999)">
	</g>
    <path transform="matrix(0.13329774 0 -0 -0.13329776 0 1248.9999)"  d="M2583 4493C 2551 4433 2493 4241 2466 4110C 2448 4022 2423 3807 2414 3665C 2403 3494 2442 3196 2477 3183C 2505 3172 2511 3195 2495 3261C 2487 3296 2475 3388 2468 3465C 2449 3700 2487 4032 2566 4302C 2585 4369 2612 4445 2626 4471C 2655 4529 2656 4550 2631 4550C 2619 4550 2603 4531 2583 4493z" stroke="none" fill="#000000" fill-rule="nonzero" />
	<g transform="matrix(0.13329774 0 -0 -0.13329776 0 1248.9999)">
	</g>
    <path transform="matrix(0.13329774 0 -0 -0.13329776 0 1248.9999)"  d="M2201 4392C 2183 4359 2139 4236 2130 4194C 2093 4029 2069 3604 2089 3457C 2102 3361 2134 3245 2151 3234C 2157 3231 2168 3234 2176 3242C 2189 3254 2189 3261 2175 3293C 2141 3375 2127 3506 2133 3705C 2141 3971 2163 4141 2206 4265C 2256 4409 2256 4410 2232 4410C 2220 4410 2206 4402 2201 4392z" stroke="none" fill="#000000" fill-rule="nonzero" />
</g>
</svg>
